<svg version="1.1" id="Layer_1" xmlns="http://www.w3.org/2000/svg" xmlns:xlink="http://www.w3.org/1999/xlink" x="0px" y="0px"
	 width="100%" viewBox="0 0 1080 1080" enable-background="new 0 0 1080 1080" xml:space="preserve">
<path fill="#4da1e2" opacity="1.000000" stroke="none"
	d="
M1.000006,948.000000
	C1.000000,632.398682 1.000000,316.797394 1.000000,1.000000
	C360.360168,1.000000 719.720337,1.000000 1079.542236,1.453634
	C1080.004517,99.537598 1080.006104,197.167923 1080.005615,294.798248
	C1080.004150,556.865479 1080.001953,818.932739 1080.000000,1081.000000
	C1071.973145,1081.000000 1063.946289,1081.000000 1055.279297,1080.713867
	C1051.534302,1078.493408 1048.431641,1076.555298 1045.324219,1074.625000
	C994.530396,1043.073486 946.661316,1007.867493 906.524719,963.072571
	C888.694885,943.173462 872.723511,921.883911 860.951050,897.793518
	C840.941956,856.848022 826.653076,813.763794 814.009705,770.088562
	C813.487976,768.286133 812.330566,766.667664 811.361450,764.687561
	C810.668274,761.071289 810.163147,757.714661 809.485779,754.393066
	C801.352905,714.515015 793.188965,674.643127 785.045288,634.767273
	C781.395386,616.895203 777.772339,599.017578 774.112183,580.665527
	C773.997070,566.258972 773.906799,552.329407 773.883118,537.898682
	C773.968445,525.354370 773.932007,513.310547 774.059509,501.268585
	C774.081116,499.229126 774.807922,497.197113 775.595886,495.123291
	C796.561279,488.980347 817.153564,482.921722 837.715271,476.761047
	C872.153320,466.442841 906.571899,456.059540 941.367859,445.685486
	C945.822754,444.368225 949.908447,443.069061 954.343140,441.753052
	C956.466858,441.135376 958.241394,440.534546 960.402100,439.930481
	C970.992859,436.902130 981.215271,433.935822 991.397827,430.838257
	C1006.985046,426.096649 1022.544800,421.264526 1038.365601,416.206757
	C1038.709717,415.125458 1038.936279,414.299072 1038.880127,413.492340
	C1036.813110,383.809631 1034.741333,354.127167 1032.606689,324.449249
	C1032.298218,320.161865 1032.706299,315.430847 1031.023560,311.698212
	C1020.374268,288.074982 1009.229370,264.675110 997.845947,241.081284
	C995.359863,241.484787 993.302612,242.203018 991.186523,242.493805
	C985.966858,243.211044 984.900146,246.200882 984.969360,251.142609
	C985.254028,271.448669 984.756042,291.768890 985.236389,312.067535
	C985.448425,321.027527 982.516846,328.545288 977.149719,335.007446
	C972.852295,340.181580 967.784729,345.014771 962.238770,348.796356
	C946.463501,359.552795 928.162537,364.321381 909.821289,369.139954
	C902.925903,358.717621 896.283020,348.564514 889.610107,338.431244
	C880.112000,324.007721 870.591736,309.598724 860.700684,295.104004
	C851.114685,297.546295 850.513672,298.299805 851.230652,305.405731
	C853.284790,325.765686 851.776306,346.066437 847.428040,365.873016
	C842.506836,388.289185 825.133301,399.435028 804.996704,407.174744
	C797.066650,398.854584 789.477356,390.728638 781.766052,382.720215
	C769.222900,369.693726 756.599792,356.744171 743.746033,343.585327
	C740.820251,344.293121 738.050171,344.954559 735.551086,346.172211
	C734.550781,346.659576 733.580872,348.360718 733.557861,349.528320
	C733.255859,364.818481 733.270569,380.115326 732.919189,395.403900
	C732.398682,418.049011 721.695496,434.212799 701.130859,443.726288
	C688.736572,431.167877 676.570557,418.868530 664.314148,406.659851
	C657.253906,399.627045 650.047546,392.740845 642.640503,385.634827
	C634.143005,387.750702 634.186584,387.751556 634.022705,395.995911
	C633.718811,411.282532 633.625000,426.580048 632.939514,441.850372
	C632.364685,454.656372 627.204224,465.287292 615.789429,472.218018
	C606.865356,464.931000 598.223938,457.873993 589.698242,450.452881
	C592.718994,439.119934 595.623840,428.151123 598.528687,417.182312
	C597.869141,416.954315 597.209595,416.726318 596.550049,416.498322
	C591.000488,425.323364 585.450989,434.148438 579.604980,442.828491
	C577.496338,441.275513 575.686401,439.864655 573.871643,438.460052
	C567.540649,433.560150 561.208008,428.662384 554.594849,423.592773
	C549.721191,423.181061 548.109985,425.267609 547.903137,429.928436
	C547.315796,443.163147 546.112488,456.369232 545.297546,469.595520
	C544.462219,483.154053 543.799500,496.723206 543.088501,510.398376
	C543.115723,510.509003 543.134827,510.736084 542.879883,510.987610
	C542.127319,512.103149 541.608093,512.955444 541.135559,513.832886
	C536.451904,522.529663 533.361755,523.418030 523.712402,520.975830
	C513.915771,518.496338 503.949310,516.503601 493.946259,515.074707
	C483.480774,513.579712 481.957336,512.705627 479.983093,502.355988
	C475.936493,481.142212 471.925659,459.921570 467.920929,438.699829
	C466.310150,430.164246 464.754059,421.618317 463.173126,413.077118
	C462.858582,413.111603 462.544037,413.146088 462.229523,413.180542
	C462.161835,413.785461 462.094177,414.390381 461.783783,415.287720
	C459.144501,426.595062 456.515015,437.565613 454.407013,448.635468
	C451.401245,464.419952 448.287933,480.213959 446.231262,496.134460
	C445.404327,502.535706 444.843994,508.202087 438.497559,511.875183
	C428.751404,512.174316 426.142456,509.686951 425.991272,500.361328
	C425.961548,498.528473 425.965729,496.694946 425.966370,494.861725
	C425.988129,433.032288 426.011353,371.202881 426.034271,309.373444
	C426.034943,307.618988 426.034363,305.864502 426.034363,304.110046
	C426.425781,303.949036 426.817230,303.788055 427.208649,303.627075
	C428.683289,305.498566 430.239990,307.312073 431.613556,309.255066
	C433.720947,312.236145 435.541046,315.437225 437.833099,318.260864
	C438.543335,319.135742 440.390564,319.087738 441.717224,319.462280
	C441.863037,318.108734 442.532745,316.521637 442.053497,315.446808
	C440.773682,312.576447 438.828796,310.007202 437.483002,307.160065
	C436.578949,305.247467 436.245422,303.065186 435.368835,299.995728
	C442.464142,302.853180 448.261017,305.187744 454.057892,307.522278
	C454.504730,306.765289 454.951569,306.008270 455.398438,305.251251
	C451.619141,301.936646 447.839813,298.622070 444.060516,295.307465
	C444.102539,294.765747 444.144562,294.224030 444.186554,293.682312
	C448.789459,292.822845 453.381866,291.293335 457.997101,291.220947
	C476.991302,290.922943 495.992493,291.069641 514.991089,291.045319
	C516.322327,291.043610 517.826172,291.350311 518.931946,290.833557
	C519.879761,290.390717 520.916199,288.970276 520.911804,287.986633
	C520.907410,287.012604 519.844421,285.624451 518.891357,285.182922
	C517.778076,284.667175 516.281128,284.938751 514.950623,284.938751
	C491.952301,284.938812 468.954010,284.961792 445.955719,284.938751
	C443.722504,284.936523 441.489563,284.664459 438.017303,284.436188
	C439.622467,282.101929 440.281952,280.284149 441.575775,279.448578
	C443.925201,277.931335 446.814636,277.253387 449.174286,275.747955
	C451.410461,274.321289 453.256378,272.282867 455.273926,270.513489
	C445.805878,267.483337 441.567535,277.827881 433.057404,277.053650
	C435.442200,269.490509 441.735809,263.803314 441.513977,254.915451
	C434.879700,259.231842 434.251343,268.112427 426.317291,271.059662
	C426.199677,268.851288 426.040863,267.259003 426.041473,265.666809
	C426.048004,248.668442 426.095825,231.670059 426.086334,214.671722
	C426.084991,212.269989 426.717865,209.017654 422.890503,209.184204
	C418.914215,209.357239 418.918976,212.432312 419.341156,215.474899
	C419.591736,217.280640 419.886475,219.102203 419.888855,220.917007
	C419.910339,237.415741 419.879913,253.914566 419.834137,270.413269
	C419.830780,271.621826 419.589722,272.829712 419.305054,275.464722
	C416.353638,271.225037 414.437561,267.910278 411.964294,265.082947
	C409.639709,262.425598 406.726807,260.282928 404.002014,257.792969
	C403.830872,257.645966 403.730469,257.619843 403.630066,257.593689
	C403.716339,257.761353 403.802612,257.929047 403.902252,258.461060
	C406.867371,264.878021 409.819122,270.930664 413.119965,277.699158
	C404.453949,276.660645 399.069855,268.982117 391.022430,269.090027
	C390.707764,269.641144 390.393066,270.192230 390.078400,270.743317
	C395.925415,274.951508 401.772400,279.159729 407.619415,283.367920
	C407.426331,283.889130 407.233246,284.410339 407.040161,284.931549
	C404.789764,284.931549 402.539368,284.931488 400.288971,284.931580
	C379.967407,284.932465 359.645874,284.934235 339.324310,284.933411
	C336.326080,284.933289 333.283844,284.618256 330.348694,285.045135
	C328.939728,285.250031 327.733093,286.846313 326.434814,287.812469
	C327.778168,288.909363 329.019012,290.188232 330.507782,291.027008
	C331.261841,291.451813 332.463654,291.072845 333.463043,291.072449
	C351.285706,291.065491 369.111267,290.881134 386.929291,291.165955
	C392.231354,291.250702 397.512329,292.653412 402.802979,293.452271
	C402.930298,294.134949 403.057617,294.817657 403.184967,295.500366
	C400.354431,297.278992 397.275055,298.771637 394.783600,300.939850
	C393.204437,302.314087 392.500824,304.694397 391.404541,306.623505
	C393.415436,306.354095 395.606415,306.502716 397.400482,305.729889
	C401.370636,304.019806 405.141266,301.846527 408.993286,299.862152
	C409.467896,300.311554 409.942474,300.760956 410.417084,301.210358
	C409.645172,303.400940 409.057709,305.680481 408.055298,307.759979
	C406.762634,310.441528 404.808899,312.843628 403.805481,315.607727
	C403.355164,316.848236 404.520203,318.675171 404.952271,320.235992
	C406.183716,319.455933 407.847656,318.957947 408.572113,317.847229
	C411.794464,312.906921 414.747803,307.791138 417.798401,302.738800
	C419.300903,306.096588 419.814606,309.156250 419.821442,312.217041
	C419.889923,342.848206 419.882721,373.479584 419.881470,404.110901
	C419.880127,436.758057 419.884583,469.405273 419.832397,502.052368
	C419.822052,508.527161 417.606781,511.237885 412.263153,511.837952
	C407.561676,512.365906 404.305115,509.956848 403.200409,504.570984
	C399.058350,484.376678 395.110291,464.142517 390.969360,443.947968
	C388.765839,433.201935 386.319824,422.505524 383.945007,411.795227
	C383.903625,411.608582 383.379974,411.528839 383.081390,411.399200
	C383.052032,411.562592 383.022675,411.725983 382.763397,412.202515
	C376.995483,446.351593 371.457458,480.187561 365.512207,514.067261
	C347.055145,516.852112 329.005280,519.593201 310.717468,522.070496
	C290.987335,487.182953 271.495148,452.559265 252.002991,417.935547
	C251.078064,420.383087 251.070923,422.394043 251.542801,424.285461
	C256.366547,443.620758 261.620911,462.856323 266.040985,482.282196
	C269.864594,499.086639 272.765686,516.100952 275.675568,533.053833
	C264.178467,537.449585 253.080399,541.814026 241.639587,546.071167
	C239.294434,544.325745 236.876358,542.995850 235.382034,540.980896
	C232.815094,537.519531 231.062973,533.460449 228.554352,529.948364
	C208.713913,502.170990 188.793213,474.450775 168.803329,446.780762
	C167.982330,445.644318 166.228180,445.181976 164.908768,444.405548
	C164.986557,446.027802 164.603485,447.853210 165.214859,449.240265
	C170.182602,460.510895 175.664597,471.564056 180.361465,482.942902
	C188.613297,502.933990 196.471024,523.088989 204.305954,543.248352
	C204.881989,544.730469 203.945984,546.800232 203.712952,548.596802
	C202.150635,547.980347 200.199234,547.760925 199.094177,546.677917
	C194.576431,542.250427 190.324661,537.552063 185.961365,532.966431
	C170.001221,516.192993 154.122635,499.340149 137.988831,482.735382
	C135.206909,479.872253 131.332016,478.071106 127.961983,475.779419
	C127.306190,477.405579 127.342880,477.924133 127.567528,478.341583
	C128.672089,480.394135 129.802231,482.433868 130.967026,484.452911
	C150.614365,518.509094 169.996033,552.694092 183.889603,589.650085
	C191.997025,611.215332 199.059433,633.103271 200.798645,656.200012
	C203.585220,693.205627 194.466858,727.534363 175.968674,759.503662
	C159.596008,787.799622 138.378342,812.477417 116.662834,836.586853
	C100.078728,854.999329 81.945335,872.035156 64.215027,889.391113
	C47.197430,906.049438 29.862253,922.385132 12.546272,938.735107
	C8.969914,942.111938 4.862607,944.926392 1.000006,948.000000
M598.485168,414.582764
	C598.485168,414.582764 598.450623,414.507507 598.485168,414.582764
z"/>
<path fill="#EDEDED" opacity="1.000000" stroke="none"
	d="
M1.000006,948.468628
	C4.862607,944.926392 8.969914,942.111938 12.546272,938.735107
	C29.862253,922.385132 47.197430,906.049438 64.215027,889.391113
	C81.945335,872.035156 100.078728,854.999329 116.662834,836.586853
	C138.378342,812.477417 159.596008,787.799622 175.968674,759.503662
	C194.466858,727.534363 203.585220,693.205627 200.798645,656.200012
	C199.059433,633.103271 191.997025,611.215332 183.889603,589.650085
	C169.996033,552.694092 150.614365,518.509094 130.967026,484.452911
	C129.802231,482.433868 128.672089,480.394135 127.567528,478.341583
	C127.342880,477.924133 127.306190,477.405579 127.961983,475.779419
	C131.332016,478.071106 135.206909,479.872253 137.988831,482.735382
	C154.122635,499.340149 170.001221,516.192993 185.961365,532.966431
	C190.324661,537.552063 194.576431,542.250427 199.094177,546.677917
	C200.199234,547.760925 202.150635,547.980347 203.712952,548.596802
	C203.945984,546.800232 204.881989,544.730469 204.305954,543.248352
	C196.471024,523.088989 188.613297,502.933990 180.361465,482.942902
	C175.664597,471.564056 170.182602,460.510895 165.214859,449.240265
	C164.603485,447.853210 164.986557,446.027802 164.908768,444.405548
	C166.228180,445.181976 167.982330,445.644318 168.803329,446.780762
	C188.793213,474.450775 208.713913,502.170990 228.554352,529.948364
	C231.062973,533.460449 232.815094,537.519531 235.382034,540.980896
	C236.876358,542.995850 239.294434,544.325745 241.649643,546.452759
	C242.814270,553.942261 246.654099,559.025696 252.146637,563.435974
	C252.620392,566.057983 252.751480,568.465210 253.717789,570.469788
	C263.304840,590.357788 273.014313,610.186890 282.755890,629.999878
	C283.332245,631.172058 284.481018,632.062744 285.363373,633.084473
	C285.930695,631.745178 286.942230,630.424622 286.999481,629.063904
	C288.045898,604.193481 287.091431,579.477295 280.887878,554.758057
	C280.239105,547.000122 280.908203,539.382568 276.074585,533.022461
	C272.765686,516.100952 269.864594,499.086639 266.040985,482.282196
	C261.620911,462.856323 256.366547,443.620758 251.542801,424.285461
	C251.070923,422.394043 251.078064,420.383087 252.002991,417.935547
	C271.495148,452.559265 290.987335,487.182953 310.726746,522.456482
	C311.416565,531.170471 316.180695,537.147095 320.547485,543.599243
	C321.096100,546.994385 321.187531,550.354858 322.596436,553.018433
	C333.354309,573.356445 341.320129,594.791016 348.358856,616.625549
	C348.954010,618.471741 350.690582,619.949951 351.896881,621.599182
	C352.343384,621.392273 352.789856,621.185425 353.236328,620.978577
	C356.417297,593.082764 359.598297,565.186890 362.882477,536.870728
	C363.963593,528.974854 364.941528,521.499146 365.919434,514.023499
	C371.457458,480.187561 376.995483,446.351593 382.765015,412.658234
	C383.979126,430.881134 385.051239,448.957123 385.918121,467.042999
	C386.721802,483.809845 387.423065,500.583527 387.959106,517.360901
	C388.718536,541.131714 389.844635,564.909912 389.794373,588.682800
	C389.729340,619.455383 389.168610,650.248230 387.815857,680.988098
	C387.103394,697.179260 385.290863,713.482422 382.138458,729.370605
	C376.577820,757.396423 369.637848,785.149475 363.226715,813.005493
	C354.166260,852.372620 345.078491,891.733582 335.963928,931.088257
	C333.714325,940.801697 331.426483,950.509644 328.906952,960.155029
	C328.303223,962.466309 328.192505,966.134827 323.913269,964.467285
	C327.634369,945.838196 331.673096,927.677002 334.954865,909.380066
	C341.755920,871.462402 348.606812,833.543152 354.546356,795.485535
	C358.011597,773.282043 359.639343,750.781128 356.928986,728.289551
	C356.009949,720.663025 354.057953,713.160889 352.578003,705.601929
	C350.612518,707.342834 349.774353,708.948914 349.013275,710.590637
	C337.037140,736.424377 323.406555,761.339661 307.584473,785.029358
	C275.310486,833.351562 237.930603,877.638550 198.747192,920.343506
	C165.426392,956.659058 131.086060,992.058777 96.574242,1027.253174
	C80.160385,1043.991699 62.297268,1059.308960 44.941360,1074.946533
	C44.164249,1073.371094 43.536442,1072.119385 43.048958,1070.564453
	C57.145550,1052.644775 71.146172,1035.063232 85.049667,1017.405273
	C125.313988,966.268250 166.044449,915.429749 200.881653,860.343750
	C217.570328,833.954956 232.382614,806.377869 247.964355,779.292725
	C250.121628,775.542847 251.334412,771.491882 248.893478,766.630432
	C246.124298,769.922302 243.616638,772.763367 241.260834,775.725220
	C216.878983,806.379211 191.212769,835.903442 163.570129,863.668945
	C112.054680,915.413391 57.388077,963.664856 1.000000,1010.000000
	C1.000000,1002.312439 1.000000,994.624817 1.290247,986.302856
	C4.201802,982.721191 6.823109,979.773865 9.444416,976.826599
	C9.046985,976.358948 8.649553,975.891296 8.252122,975.423645
	C5.834756,976.615784 3.417390,977.807922 1.000012,979.000000
	C1.000000,968.979126 1.000000,958.958191 1.000006,948.468628
M209.012939,583.729248
	C211.151688,589.687134 215.225952,593.680542 222.377457,595.352966
	C220.506378,590.028625 218.635300,584.704285 216.628723,578.615173
	C215.863419,575.904968 215.104935,573.192749 214.330826,570.485046
	C213.581589,567.864380 213.588470,564.349060 209.178879,565.822754
	C205.411285,567.081787 202.993866,569.409607 204.496185,573.648010
	C205.642456,576.881897 207.347504,579.917664 209.012939,583.729248
z"/>
<path fill="#5B5957" opacity="1.000000" stroke="none"
	d="
M45.090660,1075.270142
	C62.297268,1059.308960 80.160385,1043.991699 96.574242,1027.253174
	C131.086060,992.058777 165.426392,956.659058 198.747192,920.343506
	C237.930603,877.638550 275.310486,833.351562 307.584473,785.029358
	C323.406555,761.339661 337.037140,736.424377 349.013275,710.590637
	C349.774353,708.948914 350.612518,707.342834 352.578003,705.601929
	C354.057953,713.160889 356.009949,720.663025 356.928986,728.289551
	C359.639343,750.781128 358.011597,773.282043 354.546356,795.485535
	C348.606812,833.543152 341.755920,871.462402 334.954865,909.380066
	C331.673096,927.677002 327.634369,945.838196 323.655457,964.757080
	C318.917694,984.304810 314.471130,1003.158142 310.005768,1022.007080
	C305.346649,1041.673584 300.669373,1061.335938 296.000000,1081.000000
	C211.979111,1081.000000 127.958214,1081.000000 43.228928,1080.701172
	C43.377247,1078.691650 44.233952,1076.980835 45.090660,1075.270142
z"/>
<path fill="#5B5957" opacity="1.000000" stroke="none"
	d="
M538.000000,1081.000000
	C459.312439,1081.000000 380.624878,1081.000000 301.486908,1080.636230
	C311.549561,1054.983398 322.188568,1029.745850 332.550201,1004.394836
	C356.109192,946.754395 377.022369,888.155273 395.200439,828.602966
	C404.162262,799.243530 412.662781,769.748779 417.346619,739.284058
	C418.640167,730.870544 421.607025,722.714294 423.847595,714.836914
	C423.970062,716.062073 423.999420,716.899170 424.139465,717.717224
	C431.568420,761.107178 442.609650,803.594116 455.818573,845.560181
	C476.098877,909.992737 499.937958,973.113403 525.458862,1035.620972
	C531.207581,1049.701050 537.048828,1063.743530 542.846924,1077.801880
	C541.004211,1079.017822 539.502075,1080.008911 538.000000,1081.000000
z"/>
<path fill="#EDEDED" opacity="1.000000" stroke="none"
	d="
M538.468628,1081.000000
	C539.502075,1080.008911 541.004211,1079.017822 542.846924,1077.801880
	C537.048828,1063.743530 531.207581,1049.701050 525.458862,1035.620972
	C499.937958,973.113403 476.098877,909.992737 455.818573,845.560181
	C442.609650,803.594116 431.568420,761.107178 424.139465,717.717224
	C423.999420,716.899170 423.970062,716.062073 423.780457,714.408081
	C422.943237,699.360901 421.676086,685.140442 421.651062,670.917725
	C421.629822,658.851257 423.043243,646.782288 423.917847,634.340454
	C424.222931,633.163818 424.511169,632.372620 424.629639,631.556824
	C429.394165,598.753540 434.143372,565.947998 438.918884,532.694824
	C439.267120,529.620911 439.375946,526.945679 439.962982,524.379822
	C440.953308,520.051025 441.339661,515.863037 438.928406,511.856384
	C444.843994,508.202087 445.404327,502.535706 446.231262,496.134460
	C448.287933,480.213959 451.401245,464.419952 454.407013,448.635468
	C456.515015,437.565613 459.144501,426.595062 461.764648,415.756866
	C461.661285,429.901642 461.377350,443.870880 460.990784,457.837280
	C460.770111,465.809906 460.338074,473.776489 460.077820,481.748291
	C459.368652,503.467804 458.695190,525.188416 458.017731,546.908997
	C457.686035,557.543457 457.154541,568.177429 457.099457,578.813660
	C456.936615,610.252747 456.201477,641.717712 457.226685,673.122437
	C457.781311,690.110718 460.785736,707.124207 463.915863,723.896667
	C467.877747,745.125916 473.058594,766.128906 477.773895,787.216003
	C484.303223,816.415527 490.761627,845.631714 497.492401,874.784973
	C502.391571,896.004883 507.570099,917.162781 512.919739,938.273438
	C513.714539,941.409851 516.138062,944.133423 517.886230,947.444519
	C527.799377,990.194031 537.634460,1032.546997 547.767517,1076.183350
	C558.807068,1068.619629 568.649597,1062.398926 577.927734,1055.427124
	C614.857056,1027.677124 642.841309,992.232544 665.582336,952.381104
	C667.280212,949.405762 668.473816,946.142761 670.210510,942.855957
	C675.031006,933.551392 679.542847,924.404175 684.320923,915.016418
	C689.315979,902.941345 694.044739,891.106873 698.961792,878.941223
	C699.971619,876.625610 700.950806,874.690430 701.589722,872.648804
	C707.071228,855.133667 712.491272,837.599243 717.998535,819.678467
	C718.262451,818.650635 718.483948,818.021790 718.648987,817.378357
	C729.109497,776.601196 737.115967,735.345398 741.021301,693.422241
	C743.886108,662.670349 746.222412,631.840149 747.629395,600.991699
	C748.582520,580.092590 747.515076,559.101318 747.796997,538.183716
	C756.767334,538.277344 765.291931,538.338623 773.816528,538.399902
	C773.906799,552.329407 773.997070,566.258972 774.088013,581.119385
	C773.777039,594.739136 773.465332,607.427917 773.112549,620.571838
	C771.663208,645.120544 770.716980,669.252136 768.743164,693.299255
	C765.394226,734.100037 759.920166,774.640015 752.079468,814.846130
	C740.717041,873.111328 724.452271,929.861023 699.850281,984.023499
	C684.807373,1017.141296 666.950195,1048.612671 644.422302,1077.302002
	C643.642761,1078.294922 643.460571,1079.756714 643.000000,1081.000000
	C608.312439,1081.000000 573.624878,1081.000000 538.468628,1081.000000
z"/>
<path fill="#9E9F9F" opacity="1.000000" stroke="none"
	d="
M773.153687,620.116699
	C773.465332,607.427917 773.777039,594.739136 774.112915,581.596436
	C777.772339,599.017578 781.395386,616.895203 785.045288,634.767273
	C793.188965,674.643127 801.352905,714.515015 809.485779,754.393066
	C810.163147,757.714661 810.668274,761.071289 811.468628,765.106506
	C817.052856,792.519165 822.422058,819.237000 827.791077,845.954773
	C838.593628,899.711609 849.398376,953.467957 860.197571,1007.225464
	C865.137451,1031.815796 870.066223,1056.408447 875.000000,1081.000000
	C841.645752,1081.000000 808.291565,1081.000000 774.467163,1080.531250
	C774.003357,928.685181 774.012878,777.307739 773.980225,625.930298
	C773.979797,623.992371 773.441101,622.054565 773.153687,620.116699
z"/>
<path fill="#CBCACA" opacity="1.000000" stroke="none"
	d="
M423.821838,634.714417
	C423.043243,646.782288 421.629822,658.851257 421.651062,670.917725
	C421.676086,685.140442 422.943237,699.360901 423.738953,714.011169
	C421.607025,722.714294 418.640167,730.870544 417.346619,739.284058
	C412.662781,769.748779 404.162262,799.243530 395.200439,828.602966
	C377.022369,888.155273 356.109192,946.754395 332.550201,1004.394836
	C322.188568,1029.745850 311.549561,1054.983398 301.018250,1080.636230
	C299.611115,1081.000000 298.222198,1081.000000 296.416687,1081.000000
	C300.669373,1061.335938 305.346649,1041.673584 310.005768,1022.007080
	C314.471130,1003.158142 318.917694,984.304810 323.630341,965.163513
	C328.192505,966.134827 328.303223,962.466309 328.906952,960.155029
	C331.426483,950.509644 333.714325,940.801697 335.963928,931.088257
	C345.078491,891.733582 354.166260,852.372620 363.226715,813.005493
	C369.637848,785.149475 376.577820,757.396423 382.138458,729.370605
	C385.290863,713.482422 387.103394,697.179260 387.815857,680.988098
	C389.168610,650.248230 389.729340,619.455383 389.794373,588.682800
	C389.844635,564.909912 388.718536,541.131714 387.959106,517.360901
	C387.423065,500.583527 386.721802,483.809845 385.918121,467.042999
	C385.051239,448.957123 383.979126,430.881134 382.994934,412.345093
	C383.022675,411.725983 383.052032,411.562592 383.081390,411.399200
	C383.379974,411.528839 383.903625,411.608582 383.945007,411.795227
	C386.319824,422.505524 388.765839,433.201935 390.969360,443.947968
	C395.110291,464.142517 399.058350,484.376678 403.200409,504.570984
	C404.305115,509.956848 407.561676,512.365906 412.263153,511.837952
	C417.606781,511.237885 419.822052,508.527161 419.832397,502.052368
	C419.884583,469.405273 419.880127,436.758057 419.881470,404.110901
	C419.882721,373.479584 419.889923,342.848206 419.821442,312.217041
	C419.814606,309.156250 419.300903,306.096588 417.798401,302.738800
	C414.747803,307.791138 411.794464,312.906921 408.572113,317.847229
	C407.847656,318.957947 406.183716,319.455933 404.952271,320.235992
	C404.520203,318.675171 403.355164,316.848236 403.805481,315.607727
	C404.808899,312.843628 406.762634,310.441528 408.055298,307.759979
	C409.057709,305.680481 409.645172,303.400940 410.417084,301.210358
	C409.942474,300.760956 409.467896,300.311554 408.993286,299.862152
	C405.141266,301.846527 401.370636,304.019806 397.400482,305.729889
	C395.606415,306.502716 393.415436,306.354095 391.404541,306.623505
	C392.500824,304.694397 393.204437,302.314087 394.783600,300.939850
	C397.275055,298.771637 400.354431,297.278992 403.184967,295.500366
	C403.057617,294.817657 402.930298,294.134949 402.802979,293.452271
	C397.512329,292.653412 392.231354,291.250702 386.929291,291.165955
	C369.111267,290.881134 351.285706,291.065491 333.463043,291.072449
	C332.463654,291.072845 331.261841,291.451813 330.507782,291.027008
	C329.019012,290.188232 327.778168,288.909363 326.434814,287.812469
	C327.733093,286.846313 328.939728,285.250031 330.348694,285.045135
	C333.283844,284.618256 336.326080,284.933289 339.324310,284.933411
	C359.645874,284.934235 379.967407,284.932465 400.288971,284.931580
	C402.539368,284.931488 404.789764,284.931549 407.040161,284.931549
	C407.233246,284.410339 407.426331,283.889130 407.619415,283.367920
	C401.772400,279.159729 395.925415,274.951508 390.078400,270.743317
	C390.393066,270.192230 390.707764,269.641144 391.022430,269.090027
	C399.069855,268.982117 404.453949,276.660645 413.119965,277.699158
	C409.819122,270.930664 406.867371,264.878021 403.949524,258.416626
	C403.983429,258.007874 404.072754,257.913818 404.072754,257.913818
	C406.726807,260.282928 409.639709,262.425598 411.964294,265.082947
	C414.437561,267.910278 416.353638,271.225037 419.305054,275.464722
	C419.589722,272.829712 419.830780,271.621826 419.834137,270.413269
	C419.879913,253.914566 419.910339,237.415741 419.888855,220.917007
	C419.886475,219.102203 419.591736,217.280640 419.341156,215.474899
	C418.918976,212.432312 418.914215,209.357239 422.890503,209.184204
	C426.717865,209.017654 426.084991,212.269989 426.086334,214.671722
	C426.095825,231.670059 426.048004,248.668442 426.041473,265.666809
	C426.040863,267.259003 426.199677,268.851288 426.317291,271.059662
	C434.251343,268.112427 434.879700,259.231842 441.513977,254.915451
	C441.735809,263.803314 435.442200,269.490509 433.057404,277.053650
	C441.567535,277.827881 445.805878,267.483337 455.273926,270.513489
	C453.256378,272.282867 451.410461,274.321289 449.174286,275.747955
	C446.814636,277.253387 443.925201,277.931335 441.575775,279.448578
	C440.281952,280.284149 439.622467,282.101929 438.017303,284.436188
	C441.489563,284.664459 443.722504,284.936523 445.955719,284.938751
	C468.954010,284.961792 491.952301,284.938812 514.950623,284.938751
	C516.281128,284.938751 517.778076,284.667175 518.891357,285.182922
	C519.844421,285.624451 520.907410,287.012604 520.911804,287.986633
	C520.916199,288.970276 519.879761,290.390717 518.931946,290.833557
	C517.826172,291.350311 516.322327,291.043610 514.991089,291.045319
	C495.992493,291.069641 476.991302,290.922943 457.997101,291.220947
	C453.381866,291.293335 448.789459,292.822845 444.186554,293.682312
	C444.144562,294.224030 444.102539,294.765747 444.060516,295.307465
	C447.839813,298.622070 451.619141,301.936646 455.398438,305.251251
	C454.951569,306.008270 454.504730,306.765289 454.057892,307.522278
	C448.261017,305.187744 442.464142,302.853180 435.368835,299.995728
	C436.245422,303.065186 436.578949,305.247467 437.483002,307.160065
	C438.828796,310.007202 440.773682,312.576447 442.053497,315.446808
	C442.532745,316.521637 441.863037,318.108734 441.717224,319.462280
	C440.390564,319.087738 438.543335,319.135742 437.833099,318.260864
	C435.541046,315.437225 433.720947,312.236145 431.613556,309.255066
	C430.239990,307.312073 428.683289,305.498566 427.208649,303.627075
	C426.817230,303.788055 426.425781,303.949036 426.034363,304.110046
	C426.034363,305.864502 426.034943,307.618988 426.034271,309.373444
	C426.011353,371.202881 425.988129,433.032288 425.966370,494.861725
	C425.965729,496.694946 425.961548,498.528473 425.991272,500.361328
	C426.142456,509.686951 428.751404,512.174316 438.497559,511.875183
	C441.339661,515.863037 440.953308,520.051025 439.962982,524.379822
	C439.375946,526.945679 439.267120,529.620911 438.554504,532.577271
	C430.109406,532.694458 422.039368,532.100525 414.001160,532.390442
	C407.719055,532.616943 406.935699,534.135864 407.815033,540.317200
	C411.296539,564.791199 414.599945,589.292786 418.385101,613.719788
	C419.486572,620.828125 421.971222,627.722168 423.821838,634.714417
z"/>
<path fill="#808080" opacity="1.000000" stroke="none"
	d="
M773.112610,620.571838
	C773.441101,622.054565 773.979797,623.992371 773.980225,625.930298
	C774.012878,777.307739 774.003357,928.685181 773.998535,1080.531250
	C730.645752,1081.000000 687.291565,1081.000000 643.468628,1081.000000
	C643.460571,1079.756714 643.642761,1078.294922 644.422302,1077.302002
	C666.950195,1048.612671 684.807373,1017.141296 699.850281,984.023499
	C724.452271,929.861023 740.717041,873.111328 752.079468,814.846130
	C759.920166,774.640015 765.394226,734.100037 768.743164,693.299255
	C770.716980,669.252136 771.663208,645.120544 773.112610,620.571838
z"/>
<path fill="#EEEDED" opacity="1.000000" stroke="none"
	d="
M875.468628,1081.000000
	C870.066223,1056.408447 865.137451,1031.815796 860.197571,1007.225464
	C849.398376,953.467957 838.593628,899.711609 827.791077,845.954773
	C822.422058,819.237000 817.052856,792.519165 811.576538,765.382446
	C812.330566,766.667664 813.487976,768.286133 814.009705,770.088562
	C826.653076,813.763794 840.941956,856.848022 860.951050,897.793518
	C872.723511,921.883911 888.694885,943.173462 906.524719,963.072571
	C946.661316,1007.867493 994.530396,1043.073486 1045.324219,1074.625000
	C1048.431641,1076.555298 1051.534302,1078.493408 1054.819580,1080.713867
	C995.312439,1081.000000 935.624878,1081.000000 875.468628,1081.000000
z"/>
<path fill="#5B5957" opacity="1.000000" stroke="none"
	d="
M1.000000,1010.468628
	C57.388077,963.664856 112.054680,915.413391 163.570129,863.668945
	C191.212769,835.903442 216.878983,806.379211 241.260834,775.725220
	C243.616638,772.763367 246.124298,769.922302 248.893478,766.630432
	C251.334412,771.491882 250.121628,775.542847 247.964355,779.292725
	C232.382614,806.377869 217.570328,833.954956 200.881653,860.343750
	C166.044449,915.429749 125.313988,966.268250 85.049667,1017.405273
	C71.146172,1035.063232 57.145550,1052.644775 42.744881,1070.708008
	C39.200321,1074.436401 36.100166,1077.718262 33.000008,1081.000000
	C22.378843,1081.000000 11.757686,1081.000000 1.000000,1081.000000
	C1.000000,1057.645874 1.000000,1034.291626 1.000000,1010.468628
z"/>
<path fill="#FFFFFF" opacity="1.000000" stroke="none"
	d="
M1080.500000,1081.000000
	C1080.001953,818.932739 1080.004150,556.865479 1080.005615,294.798248
	C1080.006104,197.167923 1080.004517,99.537598 1080.001953,1.453633
	C1080.333374,1.166665 1080.943848,1.315913 1080.955444,1.502795
	C1081.038940,2.830885 1081.000000,4.166667 1081.000000,5.500000
	C1081.000000,364.000000 1081.000000,722.500000 1080.500000,1081.000000
z"/>
<path fill="#CBCACB" opacity="1.000000" stroke="none"
	d="
M33.454117,1081.000000
	C36.100166,1077.718262 39.200321,1074.436401 42.604557,1071.011230
	C43.536442,1072.119385 44.164249,1073.371094 44.941353,1074.946533
	C44.233952,1076.980835 43.377247,1078.691650 42.760269,1080.701172
	C39.969406,1081.000000 36.938812,1081.000000 33.454117,1081.000000
z"/>
<path fill="#CBCACB" opacity="1.000000" stroke="none"
	d="
M1.000012,979.437500
	C3.417390,977.807922 5.834756,976.615784 8.252122,975.423645
	C8.649553,975.891296 9.046985,976.358948 9.444416,976.826599
	C6.823109,979.773865 4.201802,982.721191 1.290247,985.834229
	C1.000000,983.958313 1.000000,981.916687 1.000012,979.437500
z"/>
<path fill="#CCCACA" opacity="1.000000" stroke="none"
	d="
M717.929688,820.070618
	C712.491272,837.599243 707.071228,855.133667 701.589722,872.648804
	C700.950806,874.690430 699.971619,876.625610 698.671631,878.773682
	C680.168945,859.769653 661.737915,840.965027 644.230225,821.336853
	C625.095825,799.885071 604.870361,779.194519 591.068298,753.512390
	C590.000183,751.525024 588.291382,749.881897 586.880371,748.078796
	C586.362000,750.633179 586.564209,752.631226 587.190552,754.486145
	C588.198059,757.469910 589.324951,760.435730 590.679443,763.276550
	C607.033386,797.575195 626.022217,830.394653 647.031189,862.018555
	C658.989563,880.019043 671.688965,897.527222 684.054688,915.257019
	C679.542847,924.404175 675.031006,933.551392 669.912964,942.713867
	C632.348022,902.722229 596.319214,861.878296 563.961609,818.041077
	C539.783630,785.285461 515.470703,752.455261 499.493195,714.512268
	C498.455200,712.047302 496.782257,709.849670 494.849152,706.591370
	C493.568085,709.622253 492.402161,711.351501 492.122681,713.213806
	C490.623016,723.207458 488.375488,733.215088 488.176636,743.253296
	C487.651123,769.775696 491.308899,795.998718 495.901001,822.064819
	C502.063019,857.042542 508.448029,891.980957 514.676331,926.947144
	C515.865234,933.621582 516.771423,940.346436 517.808044,947.048035
	C516.138062,944.133423 513.714539,941.409851 512.919739,938.273438
	C507.570099,917.162781 502.391571,896.004883 497.492401,874.784973
	C490.761627,845.631714 484.303223,816.415527 477.773895,787.216003
	C473.058594,766.128906 467.877747,745.125916 463.915863,723.896667
	C460.785736,707.124207 457.781311,690.110718 457.226685,673.122437
	C456.201477,641.717712 456.936615,610.252747 457.099457,578.813660
	C457.154541,568.177429 457.686035,557.543457 458.017731,546.908997
	C458.695190,525.188416 459.368652,503.467804 460.077820,481.748291
	C460.338074,473.776489 460.770111,465.809906 460.990784,457.837280
	C461.377350,443.870880 461.661285,429.901642 462.007324,415.464417
	C462.094177,414.390381 462.161835,413.785461 462.229523,413.180542
	C462.544037,413.146088 462.858582,413.111603 463.173126,413.077118
	C464.754059,421.618317 466.310150,430.164246 467.920929,438.699829
	C471.925659,459.921570 475.936493,481.142212 479.983093,502.355988
	C481.957336,512.705627 483.480774,513.579712 493.946259,515.074707
	C503.949310,516.503601 513.915771,518.496338 523.712402,520.975830
	C533.361755,523.418030 536.451904,522.529663 541.135559,513.832886
	C541.608093,512.955444 542.127319,512.103149 543.169312,511.182495
	C560.776184,522.533447 577.893860,533.860107 594.850403,545.422974
	C597.930359,547.523254 600.552002,547.820862 604.040894,546.734558
	C617.976685,542.395508 632.003601,538.348999 645.932983,534.543457
	C644.241760,539.524475 642.614441,544.156433 640.987061,548.788330
	C641.427002,549.126648 641.866882,549.464966 642.306763,549.803284
	C649.483154,542.855591 656.659485,535.907837 664.170044,528.784912
	C675.615967,525.320740 686.727722,522.031799 697.771606,519.101074
	C687.056152,541.829773 675.737183,563.911316 665.948547,586.651489
	C656.057983,609.628296 649.201172,633.738342 647.258606,658.800110
	C645.081177,686.892517 650.840576,713.734863 662.641113,739.280701
	C673.105713,761.934631 687.193970,782.307800 702.469177,801.894287
	C707.356323,808.160828 712.761536,814.023315 717.929688,820.070618
M494.414398,621.844727
	C495.255981,621.025879 496.478455,620.361755 496.883392,619.365479
	C506.507690,595.685364 516.049500,571.971802 525.591492,548.258301
	C527.336243,543.922241 526.434631,542.108582 521.807129,541.170959
	C511.712097,539.125488 501.601501,537.151672 491.475006,535.268494
	C485.189667,534.099731 482.856964,536.552917 483.652649,542.953613
	C485.498047,557.798279 487.188965,572.662292 489.070435,587.502258
	C490.509003,598.849426 492.143555,610.171814 494.414398,621.844727
M572.448425,611.024353
	C574.486694,606.849365 576.475464,602.649292 578.573669,598.504639
	C582.996887,589.767334 587.722900,581.173584 591.862000,572.305054
	C595.634521,564.222290 594.314514,561.579956 585.837402,558.517822
	C582.257202,557.224609 578.571350,556.202881 574.893372,555.205688
	C566.640625,552.967957 564.003540,554.886780 563.130859,563.426392
	C561.914978,575.325073 560.106079,587.189087 559.492859,599.116333
	C558.859009,611.444214 559.351929,623.830017 559.351929,636.190430
	C559.732727,636.399353 560.113586,636.608276 560.494385,636.817139
	C561.959106,634.627869 563.791992,632.597107 564.816467,630.218201
	C567.438965,624.129028 569.701721,617.885010 572.448425,611.024353
M628.087219,594.606689
	C631.818848,593.989685 637.603088,586.935608 636.761414,583.687134
	C636.433777,582.422424 635.336609,580.838928 634.221252,580.445312
	C633.152344,580.067932 631.243347,580.652649 630.332092,581.494751
	C626.575195,584.966370 626.861389,589.403381 628.087219,594.606689
z"/>
<path fill="#7D7C7C" opacity="1.000000" stroke="none"
	d="
M697.839478,518.742920
	C686.727722,522.031799 675.615967,525.320740 663.796143,528.808350
	C657.390991,530.736206 651.693909,532.465210 645.996765,534.194336
	C632.003601,538.348999 617.976685,542.395508 604.040894,546.734558
	C600.552002,547.820862 597.930359,547.523254 594.850403,545.422974
	C577.893860,533.860107 560.776184,522.533447 543.424316,510.930969
	C543.134827,510.736084 543.115723,510.509003 543.463135,510.311401
	C576.397278,498.661835 608.987854,487.220856 641.569946,475.755676
	C707.218323,452.654846 772.855774,429.522644 838.512024,406.444000
	C857.299866,399.839966 876.136902,393.375580 894.917236,387.189087
	C894.598999,390.985779 894.314941,394.440460 894.030884,397.895172
	C894.461975,397.935608 894.893127,397.976044 895.324219,398.016479
	C895.762451,396.354584 896.200745,394.692719 896.500366,393.556366
	C898.757507,393.315796 900.655029,392.682617 902.346985,393.035400
	C904.809570,393.548859 907.124084,394.772430 909.501770,395.693176
	C908.683838,397.225037 908.141235,399.016937 906.990723,400.234558
	C904.597473,402.767365 902.386658,405.172821 903.667114,409.099152
	C902.670105,410.681061 902.001160,412.159821 901.144836,414.052795
	C900.406067,412.210083 899.809204,410.721161 898.819824,408.253296
	C897.829285,409.720825 897.100342,410.800690 895.572693,413.063782
	C896.083130,409.838104 896.338928,408.221497 896.690491,405.999878
	C894.947937,406.499146 893.783752,406.832703 892.301025,407.257538
	C898.007446,413.474060 885.519958,412.158325 889.660461,418.332489
	C892.204285,418.022766 895.567505,417.613281 898.994263,417.196045
	C899.914612,421.085846 900.209045,421.266876 903.968384,420.103363
	C903.537109,418.646667 902.715942,417.196381 902.779236,415.785797
	C902.881226,413.511749 903.566223,411.263824 904.222717,408.762268
	C904.758057,407.429260 905.075500,406.338867 905.425049,405.138489
	C911.956177,407.121155 908.897888,414.456421 912.707336,417.826416
	C911.682068,419.343109 910.692261,420.807312 909.266968,422.915802
	C911.761597,423.308502 913.640015,423.604187 915.615234,423.915100
	C914.994690,426.609222 914.396423,429.206299 913.896423,431.377075
	C919.285217,432.157745 924.043457,432.847076 929.732666,433.671295
	C931.566528,431.935822 931.402222,429.615173 928.017822,427.495270
	C926.920959,426.808197 925.999329,425.841339 924.998779,425.001221
	C925.000000,425.000000 925.002441,424.996765 925.253540,424.773895
	C926.579529,423.316864 927.654297,422.082672 928.880737,420.674347
	C928.395996,419.824860 927.450134,418.923706 927.560852,418.179901
	C927.717896,417.124481 928.567261,415.443085 929.274902,415.361206
	C930.480957,415.221680 932.566467,415.787354 932.938538,416.641876
	C934.014587,419.113373 934.421509,421.876190 935.164551,424.815460
	C937.795654,424.498444 939.894531,424.245575 941.996704,423.996338
	C942.000000,424.000000 942.007324,424.006744 942.004150,424.360657
	C942.142029,427.578461 938.462341,431.994446 945.497498,432.442047
	C944.945618,430.459808 944.478333,428.781433 944.015137,427.117554
	C952.798950,425.850250 954.014099,423.238373 949.759766,415.077393
	C948.086731,411.868011 948.108032,408.685455 951.000000,405.999390
	C951.000000,406.000000 951.000000,406.001221 951.162354,406.290833
	C952.096130,408.488312 953.105286,410.338196 953.588501,412.316498
	C954.534668,416.189911 953.931824,420.813416 959.326477,422.123077
	C960.938293,422.514435 962.440918,423.355774 963.996765,423.995483
	C964.000000,424.000000 964.009766,424.006836 963.852539,424.354340
	C963.464355,428.467072 963.233398,432.232330 963.001221,435.998779
	C963.000000,436.000000 962.999023,436.001526 962.684204,436.079529
	C961.584961,437.416290 960.800415,438.674988 960.015869,439.933716
	C958.241394,440.534546 956.466858,441.135376 954.347656,441.392639
	C954.473633,438.994659 954.944092,436.940216 955.414612,434.885742
	C952.505676,441.399078 949.646667,438.525543 946.238831,434.103943
	C944.281799,438.436096 942.640259,442.069885 940.998657,445.703644
	C906.571899,456.059540 872.153320,466.442841 837.715271,476.761047
	C817.153564,482.921722 796.561279,488.980347 775.310669,494.797363
	C774.188416,487.217682 773.738281,479.925507 773.275879,472.433655
	C766.379272,474.331085 759.741333,476.224060 753.065063,477.970398
	C748.697693,479.112762 746.815247,481.752960 746.957336,486.284607
	C747.143066,492.205719 746.983032,498.137695 746.596375,504.103241
	C730.093811,509.008667 713.966675,513.875793 697.839478,518.742920
M921.761658,436.727112
	C921.416809,436.211853 921.091614,435.680115 920.695435,435.207855
	C920.657410,435.162537 920.177795,435.487610 919.903137,435.640717
	C920.358215,436.032837 920.813232,436.424988 921.761658,436.727112
M932.533936,430.505127
	C932.533936,430.505127 932.485352,430.525543 932.533936,430.505127
M890.533997,420.505096
	C890.533997,420.505096 890.485474,420.525452 890.533997,420.505096
M895.495117,420.533600
	C895.495117,420.533600 895.474792,420.485016 895.495117,420.533600
M940.533447,439.505463
	C940.533447,439.505463 940.485229,439.525604 940.533447,439.505463
M930.533386,436.504822
	C930.533386,436.504822 930.485352,436.524872 930.533386,436.504822
z"/>
<path fill="#ECECEC" opacity="1.000000" stroke="none"
	d="
M894.951416,386.847168
	C876.136902,393.375580 857.299866,399.839966 838.512024,406.444000
	C772.855774,429.522644 707.218323,452.654846 641.569946,475.755676
	C608.987854,487.220856 576.397278,498.661835 543.435913,510.200745
	C543.799500,496.723206 544.462219,483.154053 545.297546,469.595520
	C546.112488,456.369232 547.315796,443.163147 547.903137,429.928436
	C548.109985,425.267609 549.721191,423.181061 554.517578,423.903564
	C554.451416,440.006500 554.144714,455.627106 553.924011,471.248932
	C553.766846,482.368927 560.206848,488.942902 571.447144,488.935638
	C583.233948,488.928009 593.785767,484.148560 604.302063,479.634399
	C608.483276,477.839569 612.163696,474.878235 616.072144,472.447998
	C627.204224,465.287292 632.364685,454.656372 632.939514,441.850372
	C633.625000,426.580048 633.718811,411.282532 634.022705,395.995911
	C634.186584,387.751556 634.143005,387.750702 642.614990,386.124420
	C642.845764,401.908173 642.934753,417.049469 642.783630,432.188385
	C642.709106,439.649200 645.272400,446.232483 650.571838,450.966583
	C653.899597,453.939392 659.228882,456.973206 663.224609,456.476288
	C676.581665,454.815216 689.512329,450.892914 701.321289,444.023376
	C721.695496,434.212799 732.398682,418.049011 732.919189,395.403900
	C733.270569,380.115326 733.255859,364.818481 733.557861,349.528320
	C733.580872,348.360718 734.550781,346.659576 735.551086,346.172211
	C738.050171,344.954559 740.820251,344.293121 743.713989,344.077454
	C743.940186,360.699219 743.913757,376.652100 743.955750,392.604797
	C743.960449,394.403320 743.953857,396.366791 744.624817,397.972931
	C750.726562,412.578613 758.271057,421.505035 775.582886,416.893799
	C785.612244,414.222382 795.391052,410.610443 805.282654,407.421753
	C825.133301,399.435028 842.506836,388.289185 847.428040,365.873016
	C851.776306,346.066437 853.284790,325.765686 851.230652,305.405731
	C850.513672,298.299805 851.114685,297.546295 860.665649,295.551849
	C861.668640,311.034149 862.460205,325.984619 862.955017,340.944946
	C863.833130,367.495331 886.442139,381.218536 910.060364,369.418060
	C928.162537,364.321381 946.463501,359.552795 962.238770,348.796356
	C967.784729,345.014771 972.852295,340.181580 977.149719,335.007446
	C982.516846,328.545288 985.448425,321.027527 985.236389,312.067535
	C984.756042,291.768890 985.254028,271.448669 984.969360,251.142609
	C984.900146,246.200882 985.966858,243.211044 991.186523,242.493805
	C993.302612,242.203018 995.359863,241.484787 997.790527,241.502060
	C1000.297058,268.042389 1002.506592,294.037689 1004.590027,320.043152
	C1005.329895,329.277863 1005.763062,338.537201 1005.973938,347.782410
	C984.941650,354.996277 964.254395,362.164276 943.607117,369.445343
	C927.363037,375.173676 911.168152,381.041412 894.951416,386.847168
z"/>
<path fill="#7C7B7C" opacity="1.000000" stroke="none"
	d="
M894.917236,387.189148
	C911.168152,381.041412 927.363037,375.173676 943.607117,369.445343
	C964.254395,362.164276 984.941650,354.996277 1006.286804,347.964539
	C1008.554993,350.981201 1010.345581,353.721344 1011.706421,356.660461
	C1017.268250,368.672913 1022.780945,380.709717 1028.148193,392.810059
	C1031.617676,400.631836 1034.803467,408.579529 1038.116211,416.470825
	C1022.544800,421.264526 1006.985046,426.096649 991.397827,430.838257
	C981.215271,433.935822 970.992859,436.902130 960.402100,439.930450
	C960.800415,438.674988 961.584961,437.416290 962.788086,436.202820
	C963.206787,436.248108 963.648376,436.311981 963.648376,436.311981
	C963.648376,436.311981 964.004761,436.006927 964.197327,435.986328
	C964.581909,435.827026 964.773926,435.688354 964.966003,435.549683
	C964.853699,435.508942 964.694519,435.400024 964.637390,435.439362
	C964.405457,435.599030 964.204834,435.804199 963.745178,435.994476
	C963.497681,435.996338 963.002441,435.997559 963.002441,435.997559
	C963.233398,432.232330 963.464355,428.467072 963.939819,424.308716
	C964.184387,423.915619 964.196472,423.679657 964.196472,423.679657
	C964.196472,423.679657 963.993530,423.990936 963.993530,423.990936
	C962.440918,423.355774 960.938293,422.514435 959.326477,422.123077
	C953.931824,420.813416 954.534668,416.189911 953.588501,412.316498
	C953.105286,410.338196 952.096130,408.488312 951.354736,406.271057
	C951.577759,405.825256 951.770874,405.688812 951.963928,405.552368
	C951.852539,405.511658 951.693604,405.403198 951.638123,405.442169
	C951.408386,405.603455 951.209900,405.809265 951.000000,405.998779
	C948.108032,408.685455 948.086731,411.868011 949.759766,415.077393
	C954.014099,423.238373 952.798950,425.850250 944.015137,427.117554
	C944.478333,428.781433 944.945618,430.459808 945.497498,432.442047
	C938.462341,431.994446 942.142029,427.578461 942.250854,424.309204
	C942.793701,423.582550 943.088989,423.263031 943.364868,422.927582
	C943.370422,422.920868 943.150696,422.728851 943.036133,422.623322
	C942.688538,423.079773 942.340942,423.536224 941.993347,423.992676
	C939.894531,424.245575 937.795654,424.498444 935.164551,424.815460
	C934.421509,421.876190 934.014587,419.113373 932.938538,416.641876
	C932.566467,415.787354 930.480957,415.221680 929.274902,415.361206
	C928.567261,415.443085 927.717896,417.124481 927.560852,418.179901
	C927.450134,418.923706 928.395996,419.824860 928.880737,420.674347
	C927.654297,422.082672 926.579529,423.316864 925.209595,424.685852
	C924.914429,424.820709 924.682983,424.806641 924.682983,424.806641
	C924.682983,424.806641 924.997559,425.002472 924.997559,425.002472
	C925.999329,425.841339 926.920959,426.808197 928.017822,427.495270
	C931.402222,429.615173 931.566528,431.935822 929.732666,433.671295
	C924.043457,432.847076 919.285217,432.157745 913.896423,431.377075
	C914.396423,429.206299 914.994690,426.609222 915.615234,423.915100
	C913.640015,423.604187 911.761597,423.308502 909.266968,422.915802
	C910.692261,420.807312 911.682068,419.343109 912.707336,417.826416
	C908.897888,414.456421 911.956177,407.121155 905.425049,405.138489
	C905.075500,406.338867 904.758057,407.429260 904.220276,408.759827
	C904.000000,409.000000 903.995117,408.996002 903.995117,408.996002
	C902.386658,405.172821 904.597473,402.767365 906.990723,400.234558
	C908.141235,399.016937 908.683838,397.225037 909.501770,395.693176
	C907.124084,394.772430 904.809570,393.548859 902.346985,393.035400
	C900.655029,392.682617 898.757507,393.315796 896.500366,393.556366
	C896.200745,394.692719 895.762451,396.354584 895.324219,398.016479
	C894.893127,397.976044 894.461975,397.935608 894.030884,397.895172
	C894.314941,394.440460 894.598999,390.985779 894.917236,387.189148
M912.913696,401.822601
	C912.913696,401.822601 912.683289,401.806976 912.683289,401.806976
	C912.683289,401.806976 912.997559,402.001221 913.026550,402.747040
	C915.156250,407.444519 917.285950,412.142029 919.415649,416.839508
	C919.734192,416.742035 920.052673,416.644592 920.371216,416.547119
	C920.537415,414.963318 920.703552,413.379547 920.869751,411.795776
	C921.242188,411.741943 921.614685,411.688110 921.987183,411.634277
	C922.658081,413.756195 923.329041,415.878082 923.323975,418.033722
	C922.611755,418.818939 921.899475,419.604156 921.187195,420.389374
	C921.685547,420.679626 922.183899,420.969910 922.682312,421.260193
	C923.121521,420.173462 923.560730,419.086731 924.558777,417.844971
	C926.158752,415.430573 927.377563,412.610229 929.432678,410.680511
	C934.825256,405.616882 936.253662,400.261047 931.517273,396.299194
	C927.817749,393.204620 929.207581,390.942505 931.118774,386.969971
	C927.838196,387.335022 925.200928,387.628510 922.475952,387.931732
	C924.099243,390.854767 925.259277,392.943726 926.419312,395.032684
	C926.119324,395.370544 925.819336,395.708374 925.519287,396.046234
	C924.046692,395.607483 922.596741,395.040070 921.093506,394.774902
	C920.078552,394.595886 918.759033,394.507355 918.012634,395.017517
	C917.516907,395.356415 917.375916,397.234650 917.822632,397.687866
	C918.459839,398.334259 919.770691,398.450989 920.813110,398.526367
	C921.882324,398.603729 922.974854,398.359009 923.931519,398.267303
	C922.902039,401.169800 921.979919,403.769653 920.491821,407.965057
	C918.600281,405.451569 917.302551,403.727203 916.180603,401.914551
	C916.180603,401.914551 916.194397,401.682495 916.194397,401.682495
	C916.194397,401.682495 915.997437,401.996338 915.509033,402.191925
	C914.672791,402.127533 913.836487,402.063141 912.913696,401.822601
M918.755249,426.152893
	C918.064209,426.776062 917.373169,427.399200 916.193665,428.462799
	C920.447510,428.557495 920.447510,428.557495 918.755249,426.152893
M965.162415,428.742004
	C965.433533,428.689423 965.704712,428.636871 965.975830,428.584320
	C965.915833,428.466919 965.839417,428.243103 965.798584,428.249390
	C965.528137,428.291229 965.265381,428.382446 965.162415,428.742004
M919.184265,419.974365
	C919.038025,419.805969 918.891724,419.637573 918.745483,419.469177
	C918.647339,419.567841 918.549194,419.666504 918.450989,419.765137
	C918.620605,419.910431 918.790222,420.055725 919.184265,419.974365
M917.796936,422.931915
	C918.036743,422.973694 918.276489,423.015472 918.516357,423.057251
	C918.511841,422.920227 918.528015,422.669281 918.499573,422.664093
	C918.260437,422.620697 918.013245,422.622345 917.796936,422.931915
M945.765015,423.176392
	C945.568115,423.262939 945.352234,423.324829 945.186829,423.452240
	C945.141663,423.487000 945.248413,423.718964 945.285461,423.860413
	C945.470276,423.740631 945.655090,423.620850 945.765015,423.176392
M915.481140,413.210815
	C915.481140,413.210815 915.592285,412.844299 915.592285,412.844299
	C915.592285,412.844299 915.334045,413.078186 915.481140,413.210815
M1010.506958,357.458160
	C1010.506958,357.458160 1010.526611,357.506927 1010.506958,357.458160
M1008.467896,356.498413
	C1008.467896,356.498413 1008.517334,356.479584 1008.467896,356.498413
M913.467102,413.494843
	C913.467102,413.494843 913.514954,413.474884 913.467102,413.494843
M914.495117,417.534088
	C914.495117,417.534088 914.474670,417.485413 914.495117,417.534088
M914.495117,421.533600
	C914.495117,421.533600 914.474854,421.485229 914.495117,421.533600
M922.494934,426.533813
	C922.494934,426.533813 922.474915,426.485565 922.494934,426.533813
M924.533508,427.505127
	C924.533508,427.505127 924.484985,427.525421 924.533508,427.505127
z"/>
<path fill="#676868" opacity="1.000000" stroke="none"
	d="
M1038.365601,416.206757
	C1034.803467,408.579529 1031.617676,400.631836 1028.148193,392.810059
	C1022.780945,380.709717 1017.268250,368.672913 1011.706421,356.660461
	C1010.345581,353.721344 1008.554993,350.981201 1006.649109,347.967438
	C1005.763062,338.537201 1005.329895,329.277863 1004.590027,320.043152
	C1002.506592,294.037689 1000.297058,268.042389 998.192627,241.622284
	C1009.229370,264.675110 1020.374268,288.074982 1031.023560,311.698212
	C1032.706299,315.430847 1032.298218,320.161865 1032.606689,324.449249
	C1034.741333,354.127167 1036.813110,383.809631 1038.880127,413.492340
	C1038.936279,414.299072 1038.709717,415.125458 1038.365601,416.206757
z"/>
<path fill="#A5A5A5" opacity="1.000000" stroke="none"
	d="
M804.996704,407.174774
	C795.391052,410.610443 785.612244,414.222382 775.582886,416.893799
	C758.271057,421.505035 750.726562,412.578613 744.624817,397.972931
	C743.953857,396.366791 743.960449,394.403320 743.955750,392.604797
	C743.913757,376.652100 743.940186,360.699219 743.978394,344.254272
	C756.599792,356.744171 769.222900,369.693726 781.766052,382.720215
	C789.477356,390.728638 797.066650,398.854584 804.996704,407.174774
z"/>
<path fill="#A5A5A6" opacity="1.000000" stroke="none"
	d="
M615.789429,472.218018
	C612.163696,474.878235 608.483276,477.839569 604.302063,479.634399
	C593.785767,484.148560 583.233948,488.928009 571.447144,488.935638
	C560.206848,488.942902 553.766846,482.368927 553.924011,471.248932
	C554.144714,455.627106 554.451416,440.006500 554.798706,424.074585
	C561.208008,428.662384 567.540649,433.560150 573.871643,438.460052
	C575.686401,439.864655 577.496338,441.275513 579.790771,443.114868
	C583.376160,445.969818 586.479309,448.393402 589.582458,450.816986
	C598.223938,457.873993 606.865356,464.931000 615.789429,472.218018
z"/>
<path fill="#A5A5A5" opacity="1.000000" stroke="none"
	d="
M701.130859,443.726288
	C689.512329,450.892914 676.581665,454.815216 663.224609,456.476288
	C659.228882,456.973206 653.899597,453.939392 650.571838,450.966583
	C645.272400,446.232483 642.709106,439.649200 642.783630,432.188385
	C642.934753,417.049469 642.845764,401.908173 642.881348,386.278259
	C650.047546,392.740845 657.253906,399.627045 664.314148,406.659851
	C676.570557,418.868530 688.736572,431.167877 701.130859,443.726288
z"/>
<path fill="#A5A6A6" opacity="1.000000" stroke="none"
	d="
M909.821289,369.139954
	C886.442139,381.218536 863.833130,367.495331 862.955017,340.944946
	C862.460205,325.984619 861.668640,311.034149 861.045837,295.631348
	C870.591736,309.598724 880.112000,324.007721 889.610107,338.431244
	C896.283020,348.564514 902.925903,358.717621 909.821289,369.139954
z"/>
<path fill="#7B8087" opacity="1.000000" stroke="none"
	d="
M746.971802,504.064972
	C746.983032,498.137695 747.143066,492.205719 746.957336,486.284607
	C746.815247,481.752960 748.697693,479.112762 753.065063,477.970398
	C759.741333,476.224060 766.379272,474.331085 773.275879,472.433655
	C773.738281,479.925507 774.188416,487.217682 774.923706,494.835754
	C774.807922,497.197113 774.081116,499.229126 774.059509,501.268585
	C773.932007,513.310547 773.968445,525.354370 773.883118,537.898682
	C765.291931,538.338623 756.767334,538.277344 747.731689,537.703491
	C747.137695,526.148926 747.054749,515.106934 746.971802,504.064972
z"/>
<path fill="#CBCACB" opacity="1.000000" stroke="none"
	d="
M365.512207,514.067261
	C364.941528,521.499146 363.963593,528.974854 362.435425,536.813599
	C357.745728,537.318298 353.532318,537.015503 349.481689,537.690125
	C339.846985,539.294678 330.289307,541.361572 320.700500,543.241699
	C316.180695,537.147095 311.416565,531.170471 310.964722,522.720337
	C329.005280,519.593201 347.055145,516.852112 365.512207,514.067261
z"/>
<path fill="#CBCACB" opacity="1.000000" stroke="none"
	d="
M275.675598,533.053833
	C280.908203,539.382568 280.239105,547.000122 280.496826,554.684143
	C270.767670,557.720215 261.479645,560.377258 252.191589,563.034302
	C246.654099,559.025696 242.814270,553.942261 241.992371,546.560059
	C253.080399,541.814026 264.178467,537.449585 275.675598,533.053833
z"/>
<path fill="#CBCACB" opacity="1.000000" stroke="none"
	d="
M589.698242,450.452881
	C586.479309,448.393402 583.376160,445.969818 580.087219,443.259857
	C585.450989,434.148438 591.000488,425.323364 596.550049,416.498322
	C597.209595,416.726318 597.869141,416.954315 598.528687,417.182312
	C595.623840,428.151123 592.718994,439.119934 589.698242,450.452881
z"/>
<path fill="#7C7B7C" opacity="1.000000" stroke="none"
	d="
M941.367859,445.685486
	C942.640259,442.069885 944.281799,438.436096 946.238831,434.103943
	C949.646667,438.525543 952.505676,441.399078 955.414612,434.885742
	C954.944092,436.940216 954.473633,438.994659 953.998596,441.409515
	C949.908447,443.069061 945.822754,444.368225 941.367859,445.685486
z"/>
<path fill="#CBCACB" opacity="1.000000" stroke="none"
	d="
M598.467896,414.545135
	C598.450623,414.507507 598.485168,414.582764 598.467896,414.545135
z"/>
<path fill="#CBCACA" opacity="1.000000" stroke="none"
	d="
M403.936157,258.052307
	C403.802612,257.929047 403.716339,257.761353 403.630066,257.593689
	C403.730469,257.619843 403.830872,257.645966 404.002014,257.792969
	C404.072754,257.913818 403.983429,258.007874 403.936157,258.052307
z"/>
<path fill="#3F4758" opacity="1.000000" stroke="none"
	d="
M320.547485,543.599243
	C330.289307,541.361572 339.846985,539.294678 349.481689,537.690125
	C353.532318,537.015503 357.745728,537.318298 362.332214,537.233887
	C359.598297,565.186890 356.417297,593.082764 353.236328,620.978577
	C352.789856,621.185425 352.343384,621.392273 351.896881,621.599182
	C350.690582,619.949951 348.954010,618.471741 348.358856,616.625549
	C341.320129,594.791016 333.354309,573.356445 322.596436,553.018433
	C321.187531,550.354858 321.096100,546.994385 320.547485,543.599243
z"/>
<path fill="#3F4758" opacity="1.000000" stroke="none"
	d="
M252.146637,563.435974
	C261.479645,560.377258 270.767670,557.720215 280.446777,555.137085
	C287.091431,579.477295 288.045898,604.193481 286.999481,629.063904
	C286.942230,630.424622 285.930695,631.745178 285.363373,633.084473
	C284.481018,632.062744 283.332245,631.172058 282.755890,629.999878
	C273.014313,610.186890 263.304840,590.357788 253.717789,570.469788
	C252.751480,568.465210 252.620392,566.057983 252.146637,563.435974
z"/>
<path fill="#CBCACB" opacity="1.000000" stroke="none"
	d="
M208.803986,583.041565
	C207.347504,579.917664 205.642456,576.881897 204.496185,573.648010
	C202.993866,569.409607 205.411285,567.081787 209.178879,565.822754
	C213.588470,564.349060 213.581589,567.864380 214.330826,570.485046
	C215.104935,573.192749 215.863419,575.904968 216.384232,579.118164
	C213.694489,580.761292 211.249237,581.901428 208.803986,583.041565
z"/>
<path fill="#424C5D" opacity="1.000000" stroke="none"
	d="
M208.908463,583.385376
	C211.249237,581.901428 213.694489,580.761292 216.451996,579.500549
	C218.635300,584.704285 220.506378,590.028625 222.377457,595.352966
	C215.225952,593.680542 211.151688,589.687134 208.908463,583.385376
z"/>
<path fill="#5B5957" opacity="1.000000" stroke="none"
	d="
M517.886230,947.444519
	C516.771423,940.346436 515.865234,933.621582 514.676331,926.947144
	C508.448029,891.980957 502.063019,857.042542 495.901001,822.064819
	C491.308899,795.998718 487.651123,769.775696 488.176636,743.253296
	C488.375488,733.215088 490.623016,723.207458 492.122681,713.213806
	C492.402161,711.351501 493.568085,709.622253 494.849152,706.591370
	C496.782257,709.849670 498.455200,712.047302 499.493195,714.512268
	C515.470703,752.455261 539.783630,785.285461 563.961609,818.041077
	C596.319214,861.878296 632.348022,902.722229 669.604248,942.871338
	C668.473816,946.142761 667.280212,949.405762 665.582336,952.381104
	C642.841309,992.232544 614.857056,1027.677124 577.927734,1055.427124
	C568.649597,1062.398926 558.807068,1068.619629 547.767517,1076.183350
	C537.634460,1032.546997 527.799377,990.194031 517.886230,947.444519
z"/>
<path fill="#4da1e2" opacity="1.000000" stroke="none"
	d="
M746.596375,504.103241
	C747.054749,515.106934 747.137695,526.148926 747.286011,537.671143
	C747.515076,559.101318 748.582520,580.092590 747.629395,600.991699
	C746.222412,631.840149 743.886108,662.670349 741.021301,693.422241
	C737.115967,735.345398 729.109497,776.601196 718.648987,817.378357
	C718.483948,818.021790 718.262451,818.650635 717.998535,819.678467
	C712.761536,814.023315 707.356323,808.160828 702.469177,801.894287
	C687.193970,782.307800 673.105713,761.934631 662.641113,739.280701
	C650.840576,713.734863 645.081177,686.892517 647.258606,658.800110
	C649.201172,633.738342 656.057983,609.628296 665.948547,586.651489
	C675.737183,563.911316 687.056152,541.829773 697.771606,519.101135
	C713.966675,513.875793 730.093811,509.008667 746.596375,504.103241
z"/>
<path fill="#5C5A58" opacity="1.000000" stroke="none"
	d="
M684.320923,915.016418
	C671.688965,897.527222 658.989563,880.019043 647.031189,862.018555
	C626.022217,830.394653 607.033386,797.575195 590.679443,763.276550
	C589.324951,760.435730 588.198059,757.469910 587.190552,754.486145
	C586.564209,752.631226 586.362000,750.633179 586.880371,748.078796
	C588.291382,749.881897 590.000183,751.525024 591.068298,753.512390
	C604.870361,779.194519 625.095825,799.885071 644.230225,821.336853
	C661.737915,840.965027 680.168945,859.769653 698.483276,879.104736
	C694.044739,891.106873 689.315979,902.941345 684.320923,915.016418
z"/>
<path fill="#3F4758" opacity="1.000000" stroke="none"
	d="
M423.917847,634.340454
	C421.971222,627.722168 419.486572,620.828125 418.385101,613.719788
	C414.599945,589.292786 411.296539,564.791199 407.815033,540.317200
	C406.935699,534.135864 407.719055,532.616943 414.001160,532.390442
	C422.039368,532.100525 430.109406,532.694458 438.530121,533.025146
	C434.143372,565.947998 429.394165,598.753540 424.629639,631.556824
	C424.511169,632.372620 424.222931,633.163818 423.917847,634.340454
z"/>
<path fill="#3E4657" opacity="1.000000" stroke="none"
	d="
M494.052673,621.674927
	C492.143555,610.171814 490.509003,598.849426 489.070435,587.502258
	C487.188965,572.662292 485.498047,557.798279 483.652649,542.953613
	C482.856964,536.552917 485.189667,534.099731 491.475006,535.268494
	C501.601501,537.151672 511.712097,539.125488 521.807129,541.170959
	C526.434631,542.108582 527.336243,543.922241 525.591492,548.258301
	C516.049500,571.971802 506.507690,595.685364 496.883392,619.365479
	C496.478455,620.361755 495.255981,621.025879 494.052673,621.674927
z"/>
<path fill="#3E4657" opacity="1.000000" stroke="none"
	d="
M572.278381,611.363647
	C569.701721,617.885010 567.438965,624.129028 564.816467,630.218201
	C563.791992,632.597107 561.959106,634.627869 560.494385,636.817139
	C560.113586,636.608276 559.732727,636.399353 559.351929,636.190430
	C559.351929,623.830017 558.859009,611.444214 559.492859,599.116333
	C560.106079,587.189087 561.914978,575.325073 563.130859,563.426392
	C564.003540,554.886780 566.640625,552.967957 574.893372,555.205688
	C578.571350,556.202881 582.257202,557.224609 585.837402,558.517822
	C594.314514,561.579956 595.634521,564.222290 591.862000,572.305054
	C587.722900,581.173584 582.996887,589.767334 578.573669,598.504639
	C576.475464,602.649292 574.486694,606.849365 572.278381,611.363647
z"/>
<path fill="#4da1e2" opacity="1.000000" stroke="none"
	d="
M645.932983,534.543457
	C651.693909,532.465210 657.390991,530.736206 663.462036,528.983643
	C656.659485,535.907837 649.483154,542.855591 642.306763,549.803284
	C641.866882,549.464966 641.427002,549.126648 640.987061,548.788330
	C642.614441,544.156433 644.241760,539.524475 645.932983,534.543457
z"/>
<path fill="#424C5D" opacity="1.000000" stroke="none"
	d="
M628.018311,594.258667
	C626.861389,589.403381 626.575195,584.966370 630.332092,581.494751
	C631.243347,580.652649 633.152344,580.067932 634.221252,580.445312
	C635.336609,580.838928 636.433777,582.422424 636.761414,583.687134
	C637.603088,586.935608 631.818848,593.989685 628.018311,594.258667
z"/>
<path fill="#7C7B7C" opacity="1.000000" stroke="none"
	d="
M904.002441,409.002441
	C903.566223,411.263824 902.881226,413.511749 902.779236,415.785797
	C902.715942,417.196381 903.537109,418.646667 903.968384,420.103363
	C900.209045,421.266876 899.914612,421.085846 898.994263,417.196045
	C895.567505,417.613281 892.204285,418.022766 889.660461,418.332489
	C885.519958,412.158325 898.007446,413.474060 892.301025,407.257538
	C893.783752,406.832703 894.947937,406.499146 896.690491,405.999878
	C896.338928,408.221497 896.083130,409.838104 895.572693,413.063782
	C897.100342,410.800690 897.829285,409.720825 898.819824,408.253296
	C899.809204,410.721161 900.406067,412.210083 901.144836,414.052795
	C902.001160,412.159821 902.670105,410.681061 903.667114,409.099152
	C903.995117,408.996002 904.000000,409.000000 904.002441,409.002441
M897.038574,414.982330
	C897.132751,414.691711 897.226929,414.401062 897.321045,414.110413
	C897.158630,414.088318 896.974731,414.005402 896.837280,414.053986
	C895.939697,414.371307 895.052185,414.717102 893.816711,415.183746
	C894.500671,415.694427 894.656311,415.881927 894.729309,415.853943
	C895.337097,415.621063 895.929504,415.348450 897.038574,414.982330
z"/>
<path fill="#7C7B7C" opacity="1.000000" stroke="none"
	d="
M921.514954,436.772125
	C920.813232,436.424988 920.358215,436.032837 919.903137,435.640717
	C920.177795,435.487610 920.657410,435.162537 920.695435,435.207855
	C921.091614,435.680115 921.416809,436.211853 921.514954,436.772125
z"/>
<path fill="#7C7B7C" opacity="1.000000" stroke="none"
	d="
M932.509644,430.515320
	C932.485352,430.525543 932.533936,430.505127 932.509644,430.515320
z"/>
<path fill="#7C7B7C" opacity="1.000000" stroke="none"
	d="
M890.509766,420.515259
	C890.485474,420.525452 890.533997,420.505096 890.509766,420.515259
z"/>
<path fill="#7C7B7C" opacity="1.000000" stroke="none"
	d="
M895.484985,420.509308
	C895.474792,420.485016 895.495117,420.533600 895.484985,420.509308
z"/>
<path fill="#7C7B7C" opacity="1.000000" stroke="none"
	d="
M940.509338,439.515533
	C940.485229,439.525604 940.533447,439.505463 940.509338,439.515533
z"/>
<path fill="#7C7B7C" opacity="1.000000" stroke="none"
	d="
M930.509399,436.514832
	C930.485352,436.524872 930.533386,436.504822 930.509399,436.514832
z"/>
<path fill="#7D7C7C" opacity="1.000000" stroke="none"
	d="
M924.279419,417.922485
	C923.329041,415.878082 922.658081,413.756195 921.987183,411.634277
	C921.614685,411.688110 921.242188,411.741943 920.869751,411.795776
	C920.703552,413.379547 920.537415,414.963318 920.371216,416.547119
	C920.052673,416.644592 919.734192,416.742035 919.415649,416.839508
	C917.285950,412.142029 915.156250,407.444519 913.013306,402.373535
	C913.000000,402.000000 913.000244,401.998779 913.000244,401.998779
	C913.836487,402.063141 914.672791,402.127533 915.754517,402.095947
	C916.000000,402.000000 916.004883,402.002808 916.004883,402.002808
	C917.302551,403.727203 918.600281,405.451569 920.491821,407.965057
	C921.979919,403.769653 922.902039,401.169800 923.931519,398.267303
	C922.974854,398.359009 921.882324,398.603729 920.813110,398.526367
	C919.770691,398.450989 918.459839,398.334259 917.822632,397.687866
	C917.375916,397.234650 917.516907,395.356415 918.012634,395.017517
	C918.759033,394.507355 920.078552,394.595886 921.093506,394.774902
	C922.596741,395.040070 924.046692,395.607483 925.519287,396.046234
	C925.819336,395.708374 926.119324,395.370544 926.419312,395.032684
	C925.259277,392.943726 924.099243,390.854767 922.475952,387.931732
	C925.200928,387.628510 927.838196,387.335022 931.118774,386.969971
	C929.207581,390.942505 927.817749,393.204620 931.517273,396.299194
	C936.253662,400.261047 934.825256,405.616882 929.432678,410.680511
	C927.377563,412.610229 926.158752,415.430573 924.279419,417.922485
z"/>
<path fill="#7D7C7C" opacity="1.000000" stroke="none"
	d="
M919.083496,426.169861
	C920.447510,428.557495 920.447510,428.557495 916.193665,428.462799
	C917.373169,427.399200 918.064209,426.776062 919.083496,426.169861
z"/>
<path fill="#7D7C7C" opacity="1.000000" stroke="none"
	d="
M923.661987,418.016846
	C923.560730,419.086731 923.121521,420.173462 922.682312,421.260193
	C922.183899,420.969910 921.685547,420.679626 921.187195,420.389374
	C921.899475,419.604156 922.611755,418.818939 923.661987,418.016846
z"/>
<path fill="#7D7C7C" opacity="1.000000" stroke="none"
	d="
M941.996704,423.996338
	C942.340942,423.536224 942.688538,423.079773 943.036133,422.623322
	C943.150696,422.728851 943.370422,422.920868 943.364868,422.927582
	C943.088989,423.263031 942.793701,423.582550 942.253967,423.955322
	C942.007324,424.006744 942.000000,424.000000 941.996704,423.996338
z"/>
<path fill="#7D7C7C" opacity="1.000000" stroke="none"
	d="
M965.081299,428.599792
	C965.265381,428.382446 965.528137,428.291229 965.798584,428.249390
	C965.839417,428.243103 965.915833,428.466919 965.975830,428.584320
	C965.704712,428.636871 965.433533,428.689423 965.081299,428.599792
z"/>
<path fill="#7D7C7C" opacity="1.000000" stroke="none"
	d="
M919.072021,420.087708
	C918.790222,420.055725 918.620605,419.910431 918.450989,419.765137
	C918.549194,419.666504 918.647339,419.567841 918.745483,419.469177
	C918.891724,419.637573 919.038025,419.805969 919.072021,420.087708
z"/>
<path fill="#7D7C7C" opacity="1.000000" stroke="none"
	d="
M917.782715,422.771179
	C918.013245,422.622345 918.260437,422.620697 918.499573,422.664093
	C918.528015,422.669281 918.511841,422.920227 918.516357,423.057251
	C918.276489,423.015472 918.036743,422.973694 917.782715,422.771179
z"/>
<path fill="#7D7C7C" opacity="1.000000" stroke="none"
	d="
M945.802490,423.338745
	C945.655090,423.620850 945.470276,423.740631 945.285461,423.860413
	C945.248413,423.718964 945.141663,423.487000 945.186829,423.452240
	C945.352234,423.324829 945.568115,423.262939 945.802490,423.338745
z"/>
<path fill="#7D7C7C" opacity="1.000000" stroke="none"
	d="
M951.000000,405.999390
	C951.209900,405.809265 951.408386,405.603455 951.638123,405.442169
	C951.693604,405.403198 951.852539,405.511658 951.963928,405.552368
	C951.770874,405.688812 951.577759,405.825256 951.192383,405.981445
	C951.000000,406.001221 951.000000,406.000000 951.000000,405.999390
z"/>
<path fill="#7D7C7C" opacity="1.000000" stroke="none"
	d="
M915.407593,413.144501
	C915.334045,413.078186 915.592285,412.844299 915.592285,412.844299
	C915.592285,412.844299 915.481140,413.210815 915.407593,413.144501
z"/>
<path fill="#7D7C7C" opacity="1.000000" stroke="none"
	d="
M963.992676,435.992615
	C964.204834,435.804199 964.405457,435.599030 964.637390,435.439362
	C964.694519,435.400024 964.853699,435.508942 964.966003,435.549683
	C964.773926,435.688354 964.581909,435.827026 964.194946,435.982758
	C964.000000,435.999786 963.992676,435.992584 963.992676,435.992615
z"/>
<path fill="#7D7C7C" opacity="1.000000" stroke="none"
	d="
M915.998718,401.998169
	C915.997437,401.996338 916.194397,401.682495 916.194397,401.682495
	C916.194397,401.682495 916.180603,401.914551 916.092773,401.958679
	C916.004883,402.002808 916.000000,402.000000 915.998718,401.998169
z"/>
<path fill="#7D7C7C" opacity="1.000000" stroke="none"
	d="
M912.998779,402.000610
	C912.997559,402.001221 912.683289,401.806976 912.683289,401.806976
	C912.683289,401.806976 912.913696,401.822601 912.956970,401.910706
	C913.000244,401.998779 913.000000,402.000000 912.998779,402.000610
z"/>
<path fill="#676868" opacity="1.000000" stroke="none"
	d="
M1010.516785,357.482544
	C1010.526611,357.506927 1010.506958,357.458160 1010.516785,357.482544
z"/>
<path fill="#676868" opacity="1.000000" stroke="none"
	d="
M1008.492615,356.489014
	C1008.517334,356.479584 1008.467896,356.498413 1008.492615,356.489014
z"/>
<path fill="#7D7C7C" opacity="1.000000" stroke="none"
	d="
M913.491028,413.484863
	C913.514954,413.474884 913.467102,413.494843 913.491028,413.484863
z"/>
<path fill="#7D7C7C" opacity="1.000000" stroke="none"
	d="
M914.484863,417.509766
	C914.474670,417.485413 914.495117,417.534088 914.484863,417.509766
z"/>
<path fill="#7D7C7C" opacity="1.000000" stroke="none"
	d="
M914.484985,421.509399
	C914.474854,421.485229 914.495117,421.533600 914.484985,421.509399
z"/>
<path fill="#7D7C7C" opacity="1.000000" stroke="none"
	d="
M963.996765,423.995483
	C963.993530,423.990936 964.196472,423.679657 964.196472,423.679657
	C964.196472,423.679657 964.184387,423.915619 964.097046,423.961243
	C964.009766,424.006836 964.000000,424.000000 963.996765,423.995483
z"/>
<path fill="#7D7C7C" opacity="1.000000" stroke="none"
	d="
M924.998779,425.001221
	C924.997559,425.002472 924.682983,424.806641 924.682983,424.806641
	C924.682983,424.806641 924.914429,424.820709 924.958435,424.908752
	C925.002441,424.996765 925.000000,425.000000 924.998779,425.001221
z"/>
<path fill="#7D7C7C" opacity="1.000000" stroke="none"
	d="
M922.484924,426.509705
	C922.474915,426.485565 922.494934,426.533813 922.484924,426.509705
z"/>
<path fill="#7D7C7C" opacity="1.000000" stroke="none"
	d="
M924.509277,427.515259
	C924.484985,427.525421 924.533508,427.505127 924.509277,427.515259
z"/>
<path fill="#7D7C7C" opacity="1.000000" stroke="none"
	d="
M963.001221,435.998779
	C963.002441,435.997559 963.497681,435.996338 963.745178,435.994446
	C963.992676,435.992584 964.000000,435.999786 964.002380,436.003357
	C964.004761,436.006927 963.648376,436.311981 963.648376,436.311981
	C963.648376,436.311981 963.206787,436.248108 963.102905,436.124817
	C962.999023,436.001526 963.000000,436.000000 963.001221,435.998779
z"/>
<path fill="#7D7C7C" opacity="1.000000" stroke="none"
	d="
M896.782593,415.035095
	C895.929504,415.348450 895.337097,415.621063 894.729309,415.853943
	C894.656311,415.881927 894.500671,415.694427 893.816711,415.183746
	C895.052185,414.717102 895.939697,414.371307 896.837280,414.053986
	C896.974731,414.005402 897.158630,414.088318 897.321045,414.110413
	C897.226929,414.401062 897.132751,414.691711 896.782593,415.035095
z"/>
</svg>
