<?xml version="1.0" standalone="no"?>
<!DOCTYPE svg PUBLIC "-//W3C//DTD SVG 20010904//EN"
 "http://www.w3.org/TR/2001/REC-SVG-20010904/DTD/svg10.dtd">
<svg version="1.0" xmlns="http://www.w3.org/2000/svg"
 width="6000.000000pt" height="2700.000000pt" viewBox="0 0 6000.000000 2700.000000"
 preserveAspectRatio="xMidYMid meet">

<g transform="translate(0.000000,2700.000000) scale(0.100000,-0.100000)"
fill="#000000" stroke="none">
<path d="M27556 26784 c-21 -21 -20 -47 2 -67 23 -21 36 -21 56 -1 22 21 20
61 -3 74 -27 14 -37 13 -55 -6z"/>
<path d="M26262 26458 c-7 -7 -12 -21 -12 -33 0 -12 5 -26 12 -33 27 -27 78
-7 78 29 0 39 -52 63 -78 37z"/>
<path d="M13437 25932 c-24 -26 -21 -49 7 -67 34 -23 66 -5 66 35 0 45 -44 64
-73 32z"/>
<path d="M22327 25383 c-4 -3 -7 -19 -7 -35 0 -40 41 -59 70 -33 36 33 19 75
-30 75 -15 0 -30 -3 -33 -7z"/>
<path d="M56627 24732 c-24 -26 -21 -49 7 -67 34 -23 66 -5 66 35 0 45 -44 64
-73 32z"/>
<path d="M29122 24668 c-36 -36 7 -91 54 -69 42 19 26 81 -21 81 -12 0 -26 -5
-33 -12z"/>
<path d="M59978 24349 c-22 -12 -23 -52 -3 -69 21 -18 27 -9 23 38 -3 36 -5
39 -20 31z"/>
<path d="M17692 24188 c-7 -7 -12 -21 -12 -33 0 -12 5 -26 12 -33 27 -27 78
-7 78 29 0 39 -52 63 -78 37z"/>
<path d="M39602 24098 c-7 -7 -12 -21 -12 -33 0 -12 5 -26 12 -33 7 -7 21 -12
33 -12 12 0 26 5 33 12 7 7 12 21 12 33 0 12 -5 26 -12 33 -7 7 -21 12 -33 12
-12 0 -26 -5 -33 -12z"/>
<path d="M49836 24024 c-22 -22 -20 -61 4 -74 48 -26 91 30 55 70 -22 24 -38
25 -59 4z"/>
<path d="M38292 24018 c-17 -17 -15 -42 6 -61 37 -34 76 -11 70 40 -2 23 -8
29 -33 31 -17 2 -36 -3 -43 -10z"/>
<path d="M22286 23684 c-9 -8 -16 -24 -16 -34 0 -22 25 -50 45 -50 20 0 45 28
45 50 0 22 -25 50 -45 50 -7 0 -21 -7 -29 -16z"/>
<path d="M53175 23626 c-18 -26 -11 -52 16 -67 22 -12 53 2 63 27 9 23 -20 64
-44 64 -11 0 -26 -11 -35 -24z"/>
<path d="M24486 23474 c-30 -30 -13 -74 29 -74 44 0 63 60 26 80 -27 14 -37
13 -55 -6z"/>
<path d="M39005 23426 c-23 -34 -5 -66 36 -66 41 0 61 40 34 70 -24 27 -51 25
-70 -4z"/>
<path d="M41508 23405 c-9 -21 -8 -28 7 -45 35 -39 93 -1 74 48 -12 33 -65 31
-81 -3z"/>
<path d="M48166 23004 c-22 -22 -20 -50 6 -68 28 -20 33 -20 52 0 22 21 20 61
-3 74 -27 14 -37 13 -55 -6z"/>
<path d="M29080 22970 c-11 -11 -20 -26 -20 -34 0 -14 36 -46 52 -46 11 0 48
38 48 50 0 6 -9 19 -20 30 -11 11 -24 20 -30 20 -5 0 -19 -9 -30 -20z"/>
<path d="M57386 22358 c-15 -21 -9 -49 15 -63 18 -11 57 4 64 25 16 50 -48 82
-79 38z"/>
<path d="M16446 22319 c-15 -22 -11 -48 8 -61 21 -14 55 -8 66 11 14 27 13 37
-6 55 -22 22 -50 20 -68 -5z"/>
<path d="M14990 22040 c-11 -11 -20 -24 -20 -30 0 -5 9 -19 20 -30 11 -11 25
-20 30 -20 6 0 19 9 30 20 11 11 20 25 20 30 0 6 -9 19 -20 30 -11 11 -24 20
-30 20 -5 0 -19 -9 -30 -20z"/>
<path d="M58692 22044 c-44 -31 -12 -95 38 -79 21 7 36 46 25 64 -14 24 -42
30 -63 15z"/>
<path d="M20152 21748 c-17 -17 -15 -53 3 -68 20 -17 62 -5 70 20 14 44 -41
80 -73 48z"/>
<path d="M25015 21546 c-23 -34 -5 -66 36 -66 41 0 61 40 34 70 -24 27 -51 25
-70 -4z"/>
<path d="M42852 21378 c-17 -17 -15 -53 3 -68 20 -17 62 -5 70 20 14 44 -41
80 -73 48z"/>
<path d="M21786 21334 c-22 -22 -20 -61 4 -74 51 -27 95 36 50 72 -27 22 -34
22 -54 2z"/>
<path d="M36380 21240 c-11 -11 -20 -24 -20 -30 0 -15 38 -50 54 -50 14 0 46
36 46 52 0 11 -38 48 -50 48 -5 0 -19 -9 -30 -20z"/>
<path d="M26942 21038 c-7 -7 -12 -21 -12 -33 0 -12 5 -26 12 -33 7 -7 21 -12
33 -12 12 0 26 5 33 12 7 7 12 21 12 33 0 12 -5 26 -12 33 -7 7 -21 12 -33 12
-12 0 -26 -5 -33 -12z"/>
<path d="M31818 20849 c-36 -21 -16 -79 27 -79 42 0 59 44 29 74 -18 18 -32
20 -56 5z"/>
<path d="M22210 20779 c-9 -16 -8 -26 5 -45 19 -29 46 -31 70 -4 15 17 16 24
7 45 -15 32 -66 35 -82 4z"/>
<path d="M27932 20538 c-17 -17 -15 -53 3 -68 8 -7 25 -10 40 -6 29 7 44 49
25 71 -15 18 -51 20 -68 3z"/>
<path d="M27228 20499 c-26 -14 -23 -65 3 -79 16 -9 26 -8 45 5 29 18 31 46 6
68 -21 19 -30 20 -54 6z"/>
<path d="M55822 20258 c-17 -17 -15 -65 4 -72 29 -11 53 -6 64 13 14 27 13 37
-6 55 -18 19 -45 21 -62 4z"/>
<path d="M35727 20072 c-34 -37 -11 -76 40 -70 23 2 29 9 31 33 6 48 -40 71
-71 37z"/>
<path d="M34720 19825 c-31 -38 27 -96 65 -65 18 15 20 51 3 68 -17 17 -53 15
-68 -3z"/>
<path d="M34015 19780 c-36 -40 7 -96 55 -70 27 14 27 65 1 80 -27 14 -35 13
-56 -10z"/>
<path d="M45348 19689 c-26 -14 -23 -65 3 -79 16 -9 26 -8 45 5 30 19 31 49 2
69 -26 19 -27 19 -50 5z"/>
<path d="M18807 19443 c-13 -12 -7 -60 8 -73 8 -7 25 -10 40 -6 29 7 44 49 25
71 -13 15 -61 21 -73 8z"/>
<path d="M2718 19129 c-28 -16 -23 -67 7 -81 21 -9 28 -8 45 7 26 24 25 50 -2
69 -26 19 -27 19 -50 5z"/>
<path d="M45930 19015 c-31 -38 27 -96 65 -65 18 15 20 51 3 68 -17 17 -53 15
-68 -3z"/>
<path d="M55859 18549 c-16 -30 3 -69 34 -69 29 0 47 17 47 45 0 45 -60 63
-81 24z"/>
<path d="M40490 18490 c-11 -11 -20 -24 -20 -30 0 -5 9 -19 20 -30 11 -11 25
-20 30 -20 6 0 19 9 30 20 11 11 20 25 20 30 0 6 -9 19 -20 30 -11 11 -24 20
-30 20 -5 0 -19 -9 -30 -20z"/>
<path d="M2450 17679 c-9 -16 -8 -26 5 -45 19 -29 46 -31 70 -4 15 17 16 24 7
45 -15 32 -66 35 -82 4z"/>
<path d="M14965 17376 c-23 -34 -5 -66 36 -66 41 0 61 40 34 70 -24 27 -51 25
-70 -4z"/>
<path d="M59920 17135 c-17 -20 -5 -62 20 -70 42 -13 71 24 54 69 -8 20 -57
21 -74 1z"/>
<path d="M32762 16968 c-7 -7 -12 -21 -12 -33 0 -12 5 -26 12 -33 27 -27 78
-7 78 29 0 39 -52 63 -78 37z"/>
<path d="M42098 16969 c-25 -14 -22 -55 4 -73 19 -13 25 -14 43 -2 26 17 31
49 10 70 -19 18 -33 20 -57 5z"/>
<path d="M48559 16819 c-16 -30 3 -69 34 -69 29 0 47 17 47 45 0 45 -60 63
-81 24z"/>
<path d="M20258 16669 c-28 -16 -23 -67 7 -81 21 -9 28 -8 45 7 26 24 25 50
-2 69 -26 19 -27 19 -50 5z"/>
<path d="M58001 16621 c-40 -40 8 -97 55 -66 29 18 31 46 6 68 -24 22 -38 21
-61 -2z"/>
<path d="M53132 16428 c-17 -17 -15 -53 3 -68 38 -31 96 27 65 65 -15 18 -51
20 -68 3z"/>
<path d="M57012 16128 c-28 -28 -7 -78 33 -78 42 0 59 44 29 74 -18 19 -45 21
-62 4z"/>
<path d="M57722 16078 c-28 -28 -7 -78 33 -78 27 0 45 18 45 45 0 27 -18 45
-45 45 -12 0 -26 -5 -33 -12z"/>
<path d="M22690 15850 c-15 -29 -3 -59 26 -66 30 -8 54 11 54 40 0 46 -59 64
-80 26z"/>
<path d="M49208 15645 c-9 -21 -8 -28 7 -45 24 -27 51 -25 70 4 23 34 5 66
-36 66 -22 0 -32 -6 -41 -25z"/>
<path d="M50215 15410 c-27 -30 -7 -70 34 -70 41 0 59 32 36 66 -19 29 -46 31
-70 4z"/>
<path d="M50926 15358 c-15 -21 -9 -49 15 -63 18 -11 57 4 64 25 16 50 -48 82
-79 38z"/>
<path d="M20502 15228 c-7 -7 -12 -21 -12 -33 0 -12 5 -26 12 -33 7 -7 21 -12
33 -12 12 0 26 5 33 12 7 7 12 21 12 33 0 12 -5 26 -12 33 -7 7 -21 12 -33 12
-12 0 -26 -5 -33 -12z"/>
<path d="M36602 14908 c-36 -36 7 -91 54 -69 42 19 26 81 -21 81 -12 0 -26 -5
-33 -12z"/>
<path d="M16222 14568 c-30 -30 -3 -82 40 -76 29 4 47 50 28 72 -15 19 -51 21
-68 4z"/>
<path d="M16950 14532 c-56 -19 -26 -105 30 -87 21 7 36 46 25 64 -10 17 -39
29 -55 23z"/>
<path d="M17932 14278 c-7 -7 -12 -21 -12 -33 0 -12 5 -26 12 -33 7 -7 21 -12
33 -12 12 0 26 5 33 12 7 7 12 21 12 33 0 12 -5 26 -12 33 -7 7 -21 12 -33 12
-12 0 -26 -5 -33 -12z"/>
<path d="M44452 14078 c-28 -28 -7 -78 33 -78 27 0 45 18 45 45 0 27 -18 45
-45 45 -12 0 -26 -5 -33 -12z"/>
<path d="M9426 13854 c-9 -8 -16 -22 -16 -29 0 -19 28 -45 49 -45 26 0 53 33
44 56 -13 36 -50 45 -77 18z"/>
<path d="M10154 13820 c-30 -11 -37 -39 -19 -66 19 -29 46 -31 69 -5 32 36 -5
88 -50 71z"/>
<path d="M40007 13563 c-4 -3 -7 -19 -7 -34 0 -53 73 -64 86 -13 4 14 1 31 -6
39 -13 15 -61 21 -73 8z"/>
<path d="M14016 13499 c-15 -22 -11 -48 8 -61 21 -14 55 -8 66 11 14 27 13 37
-6 55 -22 22 -50 20 -68 -5z"/>
<path d="M9158 13319 c-26 -14 -23 -65 3 -79 16 -9 26 -8 45 5 29 18 31 46 6
68 -21 19 -30 20 -54 6z"/>
<path d="M18580 13105 c-19 -22 -4 -64 25 -71 31 -8 55 10 55 40 0 43 -53 63
-80 31z"/>
<path d="M3994 13022 c-38 -26 -7 -90 39 -78 30 7 43 37 27 66 -11 20 -45 26
-66 12z"/>
<path d="M25060 12970 c-11 -11 -20 -24 -20 -30 0 -5 9 -19 20 -30 11 -11 25
-20 30 -20 6 0 19 9 30 20 11 11 20 25 20 30 0 6 -9 19 -20 30 -11 11 -24 20
-30 20 -5 0 -19 -9 -30 -20z"/>
<path d="M7226 12794 c-30 -30 -13 -74 29 -74 27 0 45 18 45 45 0 42 -44 59
-74 29z"/>
<path d="M2360 12600 c-11 -11 -20 -24 -20 -30 0 -13 37 -50 50 -50 13 0 50
37 50 50 0 13 -37 50 -50 50 -5 0 -19 -9 -30 -20z"/>
<path d="M52188 12559 c-25 -14 -23 -65 2 -79 51 -27 95 36 50 72 -25 21 -29
21 -52 7z"/>
<path d="M34248 12029 c-36 -21 -16 -79 27 -79 42 0 59 44 29 74 -18 18 -32
20 -56 5z"/>
<path d="M11282 11378 c-7 -7 -12 -21 -12 -33 0 -12 5 -26 12 -33 7 -7 21 -12
33 -12 12 0 26 5 33 12 7 7 12 21 12 33 0 12 -5 26 -12 33 -7 7 -21 12 -33 12
-12 0 -26 -5 -33 -12z"/>
<path d="M21216 10914 c-30 -30 -13 -74 29 -74 12 0 26 5 33 12 7 7 12 21 12
33 0 42 -44 59 -74 29z"/>
<path d="M6692 10878 c-30 -30 -3 -83 39 -76 32 5 45 31 31 62 -13 28 -49 35
-70 14z"/>
<path d="M4492 10668 c-7 -7 -12 -21 -12 -33 0 -47 62 -63 81 -21 22 47 -33
90 -69 54z"/>
<path d="M48342 10498 c-17 -17 -15 -65 4 -72 29 -11 53 -6 64 13 14 27 13 37
-6 55 -18 19 -45 21 -62 4z"/>
<path d="M21816 10257 c-12 -9 -17 -23 -14 -42 2 -24 8 -31 31 -33 50 -6 75
38 41 72 -19 19 -35 20 -58 3z"/>
<path d="M11327 9683 c-13 -12 -7 -60 8 -73 38 -31 96 27 65 65 -13 15 -61 21
-73 8z"/>
<path d="M44932 9148 c-28 -28 -7 -78 33 -78 27 0 45 18 45 45 0 27 -18 45
-45 45 -12 0 -26 -5 -33 -12z"/>
<path d="M4528 8955 c-9 -21 -8 -28 7 -45 35 -39 93 -1 74 48 -12 33 -65 31
-81 -3z"/>
<path d="M31226 8414 c-9 -8 -16 -21 -16 -28 0 -17 33 -46 53 -46 19 0 47 26
47 45 0 20 -28 45 -50 45 -10 0 -26 -7 -34 -16z"/>
<path d="M8465 7890 c-27 -30 -7 -70 34 -70 41 0 59 32 36 66 -19 29 -46 31
-70 4z"/>
<path d="M50702 7608 c-17 -17 -15 -53 3 -68 38 -31 96 27 65 65 -15 18 -51
20 -68 3z"/>
<path d="M9762 7568 c-30 -30 -3 -82 40 -76 29 4 47 50 28 72 -15 19 -51 21
-68 4z"/>
<path d="M1676 7184 c-30 -30 -13 -74 29 -74 44 0 63 60 26 80 -27 14 -37 13
-55 -6z"/>
<path d="M18987 6932 c-24 -26 -21 -49 7 -67 34 -23 66 -5 66 35 0 45 -44 64
-73 32z"/>
<path d="M2966 6854 c-20 -20 -20 -38 0 -59 21 -21 53 -16 70 10 12 18 11 24
-2 43 -18 26 -46 28 -68 6z"/>
<path d="M25632 6518 c-28 -28 -7 -78 33 -78 27 0 45 18 45 45 0 27 -18 45
-45 45 -12 0 -26 -5 -33 -12z"/>
<path d="M5046 6394 c-30 -30 -13 -74 29 -74 12 0 26 5 33 12 7 7 12 21 12 33
0 42 -44 59 -74 29z"/>
<path d="M13976 6304 c-9 -8 -16 -24 -16 -34 0 -21 25 -50 44 -50 17 0 46 33
46 53 0 19 -26 47 -45 47 -7 0 -21 -7 -29 -16z"/>
<path d="M826 6194 c-34 -34 -9 -78 41 -72 23 2 29 9 31 33 6 46 -40 71 -72
39z"/>
<path d="M17315 5906 c-23 -34 -5 -66 35 -66 40 0 58 32 35 66 -8 13 -24 24
-35 24 -11 0 -27 -11 -35 -24z"/>
<path d="M28856 5914 c-30 -30 -13 -74 29 -74 27 0 45 18 45 45 0 42 -44 59
-74 29z"/>
<path d="M7180 5590 c-11 -11 -20 -24 -20 -30 0 -12 37 -50 48 -50 16 0 52 32
52 46 0 16 -35 54 -50 54 -5 0 -19 -9 -30 -20z"/>
<path d="M10526 5204 c-22 -22 -20 -50 5 -68 22 -15 48 -11 61 8 14 21 8 55
-11 66 -27 14 -37 13 -55 -6z"/>
<path d="M53715 4004 c-34 -35 6 -91 53 -73 29 11 31 63 3 79 -27 14 -37 13
-56 -6z"/>
</g>
</svg>
