<?xml version="1.0" standalone="no"?>
<!DOCTYPE svg PUBLIC "-//W3C//DTD SVG 20010904//EN"
 "http://www.w3.org/TR/2001/REC-SVG-20010904/DTD/svg10.dtd">
<svg version="1.0" xmlns="http://www.w3.org/2000/svg"
 width="1920.000000pt" height="1080.000000pt" viewBox="0 0 1920.000000 1080.000000"
 preserveAspectRatio="xMidYMid meet">

<g transform="translate(0.000000,1080.000000) scale(0.100000,-0.100000)"
fill="#000000" stroke="none">
<path d="M12007 6498 c-4 -211 -7 -706 -7 -1100 l0 -717 33 -5 c17 -3 122 -8
232 -11 110 -3 247 -8 304 -12 l103 -6 -7 909 c-4 500 -10 983 -14 1073 l-6
165 -305 43 c-168 23 -310 42 -316 43 -7 0 -13 -117 -17 -382z"/>
<path d="M12060 3938 c1 -229 78 -3219 83 -3224 7 -7 2815 51 2822 57 2 3
-229 735 -513 1627 l-517 1622 -937 0 -938 0 0 -82z"/>
</g>
</svg>
