<?xml version="1.0" standalone="no"?>
<!DOCTYPE svg PUBLIC "-//W3C//DTD SVG 20010904//EN"
 "http://www.w3.org/TR/2001/REC-SVG-20010904/DTD/svg10.dtd">
<svg version="1.0" xmlns="http://www.w3.org/2000/svg"
 width="1920.000000pt" height="1080.000000pt" viewBox="0 0 1920.000000 1080.000000"
 preserveAspectRatio="xMidYMid meet">

<g transform="translate(0.000000,1080.000000) scale(0.100000,-0.100000)"
fill="#000000" stroke="none">
<path d="M18070 2340 c-25 -25 -45 -74 -59 -142 -13 -63 -23 -144 -23 -176 -1
-28 -16 -39 -31 -22 -9 10 -8 12 6 7 11 -4 16 -3 12 4 -4 6 -13 8 -21 5 -22
-9 -55 26 -48 52 4 12 10 22 15 22 5 0 6 7 3 15 -5 13 -8 13 -21 0 -18 -18
-33 -19 -33 -2 0 9 -3 8 -9 -2 -5 -8 -14 -10 -21 -6 -8 5 -11 4 -7 -2 4 -6
-11 -15 -32 -22 -49 -14 -48 -14 -61 9 -8 16 -6 34 11 80 15 43 20 73 16 106
-7 62 -23 75 -19 15 3 -34 -3 -64 -18 -100 l-23 -52 -26 17 c-24 16 -25 16
-12 1 8 -10 12 -19 10 -21 -11 -11 -56 -15 -69 -7 -12 9 -8 17 25 51 21 22 35
40 29 40 -6 0 -25 -16 -44 -35 -52 -53 -60 -49 -75 39 l-6 39 -27 -37 c-16
-23 -32 -36 -42 -33 -11 3 -17 -4 -18 -21 -2 -27 -65 -127 -70 -112 -2 5 6 39
17 76 24 80 22 95 -4 27 -10 -27 -21 -51 -24 -56 -4 -4 -18 19 -31 50 -31 79
-45 91 -20 18 21 -59 33 -142 23 -159 -7 -10 -73 118 -73 141 0 13 -2 15 -9 5
-6 -10 -11 -10 -21 3 -12 15 -11 20 10 37 24 19 25 19 2 8 -13 -6 -30 -9 -38
-6 -9 3 -12 1 -9 -4 3 -6 1 -10 -6 -10 -6 0 -9 8 -6 19 2 10 1 25 -4 32 -6 9
-9 1 -9 -24 0 -33 -4 -40 -32 -52 -30 -12 -35 -12 -55 8 -13 11 -23 15 -23 9
0 -6 8 -15 17 -21 30 -17 10 -20 -42 -7 -45 12 -51 17 -63 52 -8 22 -11 56 -8
79 5 34 4 37 -6 20 -19 -31 -14 -115 9 -165 15 -34 17 -51 10 -68 -12 -26 -25
-27 -70 -8 -42 17 -139 31 -114 16 38 -24 4 -88 -40 -74 -14 4 -15 4 -4 -4 9
-7 10 -12 2 -16 -6 -4 -11 -2 -11 4 0 6 -5 8 -12 4 -6 -4 -8 -3 -4 4 3 6 -1
60 -9 119 -22 143 -62 234 -104 233 -14 -1 -13 -2 2 -11 26 -15 47 -63 63
-146 14 -76 17 -209 5 -252 -6 -22 -9 -20 -40 29 -30 46 -33 57 -28 103 l6 52
-14 -40 c-11 -36 -29 -47 -45 -27 -11 15 -44 36 -36 25 14 -24 -6 -35 -21 -13
-13 19 -14 24 -2 32 12 8 11 9 -1 5 -8 -2 -24 3 -35 12 -18 15 -19 15 -6 -1 7
-10 11 -24 8 -32 -4 -10 -1 -13 8 -10 17 7 31 -37 21 -63 -6 -15 -10 -13 -32
10 -14 15 -22 32 -18 39 4 7 3 8 -5 4 -6 -4 -24 0 -39 10 l-27 17 19 -22 c15
-16 17 -24 8 -33 -9 -9 -18 -7 -39 10 -45 35 -115 69 -158 75 -30 5 -35 4 -17
-3 12 -5 22 -12 22 -14 0 -5 -46 -76 -55 -84 -2 -2 -30 20 -62 49 l-58 52 58
-57 c53 -53 57 -61 51 -91 -3 -18 -17 -44 -31 -57 l-26 -23 5 28 c3 15 2 27
-2 27 -3 0 -17 25 -29 55 -21 51 -51 85 -75 85 -6 0 -1 -7 11 -15 29 -20 75
-145 54 -145 -6 0 -13 11 -17 25 -3 14 -10 22 -15 20 -4 -3 -5 -13 -2 -23 3
-9 -9 0 -27 20 l-32 38 -28 -38 c-15 -20 -38 -47 -51 -59 l-24 -22 -31 37
c-17 20 -36 53 -43 72 -12 36 -39 70 -82 105 -13 11 -8 2 12 -20 43 -47 62
-81 54 -95 -3 -6 -1 -10 4 -10 6 0 11 -10 11 -22 0 -19 -2 -20 -10 -8 -5 8
-10 12 -10 8 0 -3 -23 17 -51 45 l-52 52 47 -54 c25 -29 46 -57 46 -62 0 -16
-85 -47 -113 -42 -14 3 -28 13 -31 22 -3 9 -4 4 -2 -11 2 -16 -2 -28 -8 -28
-20 1 -46 27 -46 46 0 15 -2 16 -9 5 -7 -11 -13 -11 -32 2 -36 26 -49 66 -32
102 13 27 13 28 -2 11 -8 -11 -15 -24 -15 -29 0 -5 -8 -3 -17 4 -16 12 -17 12
-7 -1 20 -28 24 -49 8 -43 -10 4 -12 0 -8 -10 10 -28 -6 -40 -28 -20 -20 18
-21 18 -10 -3 10 -18 7 -32 -16 -78 -14 -31 -31 -56 -35 -56 -5 0 -7 6 -4 13
3 8 0 14 -7 14 -7 0 -27 10 -44 23 -26 19 -29 26 -19 38 10 13 8 14 -14 9 -15
-4 -33 -1 -45 7 -24 16 -114 56 -114 51 0 -3 28 -19 62 -36 58 -29 61 -32 43
-46 -11 -7 -30 -22 -42 -33 -22 -19 -22 -19 -43 16 -26 40 -33 44 -20 8 14
-35 13 -39 -7 -23 -17 13 -17 13 -1 -13 13 -20 14 -28 5 -31 -9 -4 -9 -6 0 -6
11 -1 9 -49 -2 -60 -8 -7 -26 52 -21 66 3 7 1 13 -5 13 -11 0 -27 37 -40 95
-7 33 -7 30 -3 -20 3 -33 7 -70 8 -82 0 -12 3 -19 6 -16 3 3 12 -19 21 -48 15
-49 15 -56 1 -74 l-16 -21 -24 23 c-17 15 -22 28 -17 42 9 28 19 26 45 -6 12
-16 18 -21 14 -13 -4 8 -16 25 -27 37 -10 12 -16 26 -12 32 3 6 4 11 1 11 -3
0 -13 -15 -22 -32 l-17 -33 -14 34 c-8 19 -12 43 -10 53 3 10 1 20 -3 23 -5 3
-4 20 1 38 18 63 7 71 -14 10 -12 -34 -25 -65 -29 -68 -4 -4 -19 6 -33 21
l-27 29 22 -32 c26 -40 31 -84 10 -91 -11 -4 -13 -2 -5 9 6 8 2 6 -8 -5 -22
-24 -24 -22 -67 82 -36 84 -48 159 -31 190 7 14 8 22 2 22 -23 0 -33 -44 -26
-104 4 -34 8 -71 9 -83 0 -11 4 -19 7 -17 4 2 11 -15 17 -37 l10 -41 -24 22
c-13 13 -21 27 -18 32 3 5 -2 8 -12 6 -16 -2 -20 5 -24 42 -5 35 -7 40 -11 20
l-6 -25 -11 25 -12 25 5 -28 c4 -21 3 -27 -7 -22 -7 4 -5 0 6 -9 24 -19 14
-50 -14 -43 -11 3 -18 1 -14 -4 8 -14 -20 -11 -36 4 -12 10 -12 9 -1 -5 11
-14 8 -19 -19 -33 -30 -15 -33 -15 -51 1 -10 9 -19 24 -18 33 0 12 3 11 9 -4
5 -11 9 -17 11 -12 5 22 7 29 9 45 1 10 3 12 7 5 2 -7 9 -13 15 -13 6 0 6 6
-2 15 -16 20 -30 19 -30 -1 0 -11 -6 -15 -20 -11 -10 3 -18 0 -17 -5 1 -6 -3
-12 -10 -15 -6 -2 -20 15 -31 39 -10 24 -27 50 -37 58 -17 14 -17 14 -2 -17
21 -40 32 -103 18 -103 -6 0 -8 -8 -4 -17 3 -10 -4 -5 -17 11 -19 23 -21 32
-12 47 19 30 14 43 -7 18 l-20 -24 -10 25 c-5 14 -10 19 -10 12 -1 -9 -10 -7
-31 8 -41 29 -134 59 -199 65 l-56 4 51 -9 c93 -17 146 -42 168 -79 11 -19 14
-31 7 -27 -7 5 -16 18 -21 30 -9 21 -9 21 -9 0 -1 -11 -8 -29 -16 -40 -8 -10
-15 -34 -15 -51 0 -18 -4 -33 -9 -33 -4 0 -6 -12 -3 -27 5 -25 4 -27 -12 -14
-9 8 -15 16 -12 18 2 2 -19 25 -48 51 -28 26 -53 50 -56 53 -12 13 -38 17 -49
6 -9 -9 -17 -6 -32 13 -20 24 -20 24 -9 1 11 -20 8 -26 -22 -52 -39 -33 -42
-34 -58 -14 -11 13 -9 20 11 42 l24 27 -31 -22 c-17 -12 -35 -18 -40 -14 -5 4
-6 3 -2 -2 4 -5 -2 -22 -13 -37 -25 -35 -62 -38 -116 -8 -21 11 -29 14 -19 5
11 -9 23 -16 28 -16 4 0 8 -4 8 -10 0 -19 -49 -10 -60 11 -7 11 -14 18 -18 15
-3 -4 -17 4 -31 16 -17 16 -14 10 8 -16 25 -30 30 -41 19 -47 -12 -8 -4 -13
15 -10 4 0 7 -3 7 -7 0 -20 -15 -20 -44 2 -56 41 -62 39 -13 -4 45 -40 59 -72
37 -85 -5 -3 -10 -12 -10 -18 0 -7 4 -6 10 3 7 12 9 10 7 -8 -2 -25 -2 -25
-28 -11 -11 5 -17 14 -14 20 4 5 2 9 -3 9 -5 0 -14 10 -19 23 -11 23 -107 155
-125 172 -16 15 -1 -12 37 -65 33 -46 97 -169 72 -138 -8 10 -17 15 -20 12 -3
-3 -11 3 -18 15 -10 15 -16 17 -26 9 -7 -6 -13 -6 -13 -1 0 5 -7 18 -15 29 -9
10 -4 -5 10 -33 l25 -53 -47 19 c-140 55 -133 51 -134 85 0 17 -3 25 -6 18 -4
-10 -9 -9 -19 5 -12 14 -11 11 1 -14 12 -25 12 -33 3 -33 -9 0 -10 -3 -2 -8
10 -6 15 -30 31 -161 5 -45 5 -45 -17 -30 -19 13 -23 25 -24 75 -1 32 -7 68
-14 79 -11 18 -11 16 -5 -10 9 -38 9 -92 1 -101 -4 -3 -34 10 -67 30 -55 34
-61 41 -80 98 -11 33 -18 64 -16 68 3 4 -2 10 -10 14 -8 3 -15 2 -15 -2 0 -4
-19 -13 -41 -20 -39 -12 -43 -11 -68 10 -21 19 -23 19 -8 2 22 -26 21 -37 -2
-58 -15 -14 -32 -16 -97 -12 -87 6 -82 1 9 -9 43 -5 56 -10 49 -18 -6 -7 -16
-31 -24 -55 -13 -39 -35 -56 -31 -23 1 9 -2 10 -9 3 -8 -8 -21 -7 -46 3 -49
21 -54 18 -9 -6 30 -16 37 -25 37 -49 0 -36 -5 -37 -51 -5 -31 20 -40 35 -58
97 -16 58 -20 64 -15 28 3 -25 8 -53 10 -62 7 -23 -4 -23 -30 -1 -12 10 -7 2
10 -17 18 -19 35 -46 39 -59 6 -21 1 -18 -51 20 -33 24 -67 53 -77 64 -10 11
-15 14 -11 6 6 -11 3 -13 -12 -7 -13 4 -10 0 8 -16 26 -22 54 -76 44 -86 -10
-9 -35 7 -61 42 -17 22 -33 62 -41 103 -18 83 -25 93 -17 23 5 -39 3 -51 -6
-46 -6 4 -9 11 -6 16 3 4 -2 10 -10 14 -13 5 -13 0 1 -32 41 -95 42 -93 -32
-62 -26 11 -49 19 -51 16 -2 -2 23 -14 56 -27 l61 -24 0 -63 0 -64 -30 6
c-103 20 -93 13 -88 68 3 29 2 44 -3 36 -5 -7 -9 -30 -9 -50 l0 -38 -45 0
c-40 0 -45 3 -46 23 -1 21 -1 21 -8 -3 -5 -20 -16 -26 -46 -32 -23 -3 -6 -5
38 -2 84 5 87 2 67 -50 -12 -32 -28 -33 -40 -3 -5 12 -9 16 -9 8 -1 -13 -9
-12 -56 3 -11 4 -3 -2 18 -14 46 -26 54 -42 33 -72 -15 -20 -16 -21 -16 -3 0
14 -3 16 -11 8 -16 -16 -49 7 -84 58 -30 42 -29 57 3 40 29 -15 36 -14 18 4
-8 8 -24 15 -35 15 -30 0 -83 62 -109 128 -15 39 -20 46 -16 23 7 -37 8 -37
-55 6 -19 13 -41 23 -49 23 -9 0 4 -13 29 -28 68 -44 95 -86 103 -162 6 -63 6
-64 -9 -35 l-15 30 6 -29 c5 -27 4 -28 -13 -16 -10 8 -40 34 -67 59 -31 29
-41 36 -28 18 19 -26 20 -31 7 -44 -24 -24 -17 -56 32 -135 37 -61 31 -72 -24
-46 -27 13 -49 23 -51 24 -2 1 4 16 12 33 9 16 16 34 16 38 -1 4 -9 -7 -19
-25 l-17 -33 -78 93 c-42 51 -95 123 -117 160 -22 38 -42 68 -45 68 -14 0 92
-168 171 -272 30 -39 32 -45 15 -41 -11 3 -20 13 -20 22 0 12 -2 13 -9 3 -8
-13 -70 -10 -125 5 -12 3 -16 1 -12 -6 4 -6 0 -11 -11 -12 -14 0 -15 -2 -3 -6
20 -7 59 -44 71 -65 7 -13 4 -16 -14 -14 -13 2 -36 11 -52 20 -30 17 -30 17
-6 -1 68 -50 68 -50 33 -49 -18 0 -32 4 -32 8 0 4 -7 5 -15 2 -8 -4 -17 1 -21
9 -3 9 -12 18 -20 21 -8 3 -13 2 -11 -2 2 -4 -7 -17 -20 -29 -13 -12 -23 -19
-23 -15 0 4 -4 1 -9 -6 -7 -11 -12 -11 -28 -2 -16 10 -27 9 -63 -9 -24 -11
-47 -21 -50 -21 -8 0 -38 67 -42 94 -2 11 -11 20 -21 22 -9 1 -15 -2 -11 -7 3
-5 9 -7 14 -4 5 3 9 -3 9 -12 -1 -10 2 -28 6 -41 5 -14 3 -22 -4 -22 -10 0
-15 14 -12 33 1 4 -6 10 -14 13 -8 3 -13 10 -10 15 3 4 -3 6 -13 4 -13 -2 -23
5 -31 21 -6 15 -16 22 -22 18 -7 -4 -10 -1 -7 7 6 15 -30 94 -38 86 -3 -3 6
-33 19 -67 l25 -62 -34 -14 c-19 -8 -34 -19 -34 -24 0 -6 -15 -10 -32 -10 -25
0 -29 3 -18 10 12 8 11 10 -7 11 -13 1 -29 2 -35 3 -7 1 -19 -2 -25 -7 -9 -6
-18 -5 -28 3 -15 13 -20 5 -16 -25 0 -6 -20 -11 -47 -12 -26 -1 -434 -14 -907
-28 -473 -15 -870 -28 -882 -31 -16 -3 -20 -9 -16 -24 5 -18 3 -19 -20 -11
-14 5 -27 8 -29 6 -2 -2 -25 2 -51 10 -25 8 -49 10 -51 6 -10 -16 -104 -12
-121 6 -14 13 -21 14 -36 5 -15 -9 -20 -8 -27 4 -6 11 -23 16 -51 16 -30 -1
-47 5 -58 18 -15 17 -19 18 -51 4 -27 -11 -37 -12 -43 -2 -6 9 -11 9 -23 -1
-19 -16 -71 -17 -136 -1 -28 7 -59 10 -69 7 -19 -5 -54 16 -50 30 1 4 -6 10
-16 12 -13 2 -16 -1 -11 -14 5 -14 3 -16 -11 -10 -28 12 -66 8 -78 -8 -5 -8
-24 -14 -40 -14 -17 0 -38 -3 -49 -8 -16 -7 -17 -5 -11 15 5 15 4 20 -4 16 -6
-4 -11 -14 -11 -22 0 -8 -8 -14 -19 -14 -10 0 -33 -3 -50 -6 -26 -6 -30 -4
-25 10 5 12 0 16 -18 16 -13 0 -30 6 -36 12 -10 10 -17 10 -32 0 -27 -16 -41
-15 -34 3 7 17 -25 21 -42 6 -13 -13 -84 -31 -84 -21 0 4 -10 6 -22 2 -16 -4
-19 -2 -13 9 7 11 5 11 -10 -1 -11 -9 -16 -10 -11 -3 8 15 -35 14 -45 -1 -4
-5 -10 1 -14 13 -5 18 -9 19 -28 9 -12 -7 -26 -13 -32 -14 -5 0 -12 -2 -15 -3
-6 -3 -33 -7 -81 -12 -36 -3 -69 16 -69 40 0 6 -5 11 -11 11 -7 0 -9 -10 -5
-27 5 -24 4 -26 -6 -13 -8 9 -30 15 -58 15 -25 0 -48 4 -52 9 -9 13 -38 17
-38 5 0 -4 -7 -6 -15 -3 -8 4 -15 1 -15 -5 0 -24 -29 -10 -32 16 -4 35 -26 41
-34 9 -7 -30 -8 -30 -37 -14 -23 13 -77 18 -77 8 0 -11 -104 -34 -160 -35 -46
0 -58 3 -73 22 -34 42 -66 25 -88 -46 -7 -24 -7 -25 -8 -3 -1 26 -13 28 -32 6
-9 -11 -22 -14 -45 -9 -23 4 -35 1 -41 -8 -11 -20 -57 -3 -50 18 5 10 -1 13
-22 10 -19 -2 -32 3 -42 16 -11 15 -26 19 -76 19 -38 0 -63 -4 -63 -11 0 -5
-5 -7 -10 -4 -6 3 -10 2 -10 -3 0 -14 -70 -3 -87 13 -13 13 -18 13 -41 -6 -20
-15 -28 -17 -31 -7 -2 7 -11 17 -19 22 -12 7 -12 10 -1 17 19 12 1 28 -37 32
-16 2 -35 7 -42 11 -7 4 -17 4 -22 1 -6 -4 -17 -1 -25 5 -14 12 -39 5 -31 -9
3 -4 -8 -5 -24 -3 -22 3 -27 8 -22 21 5 14 4 14 -11 2 -16 -13 -17 -12 -7 13
11 29 5 50 -11 40 -5 -3 -7 -9 -4 -14 3 -4 -4 -6 -15 -3 -12 3 -20 0 -20 -6 0
-7 -4 -10 -9 -7 -5 4 -12 -6 -15 -21 -4 -17 -19 -35 -37 -46 l-31 -17 6 24 c3
14 2 27 -2 30 -14 8 -30 -8 -33 -34 -4 -23 -46 -57 -57 -46 -2 3 -13 -6 -24
-19 -27 -35 -62 -32 -89 8 -29 41 -45 57 -56 57 -26 0 -63 -28 -74 -57 -7 -18
-16 -30 -21 -27 -4 3 -8 0 -8 -5 0 -6 -6 -11 -14 -11 -9 0 -12 8 -8 26 4 21 2
25 -9 19 -11 -6 -12 -5 -1 6 17 19 15 46 -5 54 -12 4 -24 -1 -35 -14 -11 -15
-18 -17 -21 -9 -3 10 -9 8 -23 -4 -58 -53 -78 -68 -83 -59 -4 6 -21 7 -46 1
-40 -9 -85 7 -85 29 0 5 -18 13 -40 19 -41 10 -49 6 -27 -17 8 -10 8 -12 0 -7
-6 3 -14 2 -18 -4 -8 -13 -25 -13 -25 0 0 24 -32 46 -61 42 -16 -2 -29 -8 -29
-13 0 -5 -5 -9 -11 -9 -5 0 -8 4 -5 9 9 13 -22 34 -40 27 -8 -3 -12 -10 -9
-16 3 -5 1 -10 -4 -10 -6 0 -11 -7 -11 -15 0 -17 -10 -18 -63 -6 -36 9 -37 8
-32 -12 5 -19 3 -18 -18 6 -13 15 -27 24 -31 20 -8 -8 -18 -10 -86 -14 -19 -1
-41 -6 -47 -12 -9 -6 -13 -6 -13 3 0 8 -13 10 -40 7 -22 -2 -43 -1 -46 4 -3 5
1 9 8 9 7 0 2 6 -12 13 -30 16 -104 0 -75 -15 8 -5 15 -13 15 -18 0 -14 -63 1
-80 19 -15 17 -90 27 -90 13 0 -4 5 -13 12 -20 7 -7 9 -12 4 -12 -17 0 -35 29
-30 48 3 11 1 23 -5 26 -6 4 -11 2 -11 -3 0 -6 -9 -11 -19 -11 -11 0 -32 -11
-47 -25 -26 -24 -61 -35 -49 -15 3 5 1 10 -4 10 -6 0 -11 6 -11 14 0 8 -6 13
-12 11 -42 -10 -58 -19 -58 -32 0 -9 -6 -13 -15 -9 -8 3 -27 1 -41 -4 -17 -7
-23 -7 -19 0 4 7 -2 9 -19 4 -15 -3 -32 -2 -39 4 -6 5 -29 15 -49 21 -23 8
-38 19 -39 29 0 13 -2 11 -9 -4 -9 -23 -30 -41 -30 -27 0 13 -73 13 -88 0 -7
-6 -12 -6 -11 -1 3 19 -3 49 -8 37 -2 -7 -11 -13 -19 -13 -9 0 -12 -5 -9 -10
3 -6 -10 -1 -29 11 -19 11 -40 18 -46 14 -5 -3 -10 1 -10 9 0 22 -8 20 -32 -6
-16 -19 -16 -17 2 10 12 18 19 36 16 40 -4 3 -10 2 -14 -4 -4 -6 -17 -16 -29
-23 -19 -10 -22 -9 -20 8 0 11 4 19 7 19 20 -2 30 4 30 17 0 8 9 15 20 15 11
0 20 5 20 11 0 7 -12 10 -30 7 -20 -3 -30 0 -30 9 0 7 -9 13 -20 13 -20 0 -20
1 -3 24 10 14 27 27 38 29 15 3 13 5 -7 6 -18 1 -31 -6 -38 -19 -14 -27 -38
-25 -42 3 -4 31 -32 28 -36 -5 -2 -14 -10 -32 -18 -38 -12 -11 -14 -7 -14 24
0 34 -2 36 -20 26 -14 -7 -20 -7 -20 0 0 16 -17 12 -24 -7 -4 -9 -2 -21 4 -27
13 -13 13 -36 0 -36 -5 0 -10 9 -10 20 0 21 -24 27 -36 9 -4 -8 -9 -7 -15 2
-7 11 -13 10 -30 -7 -27 -27 -18 -44 24 -45 31 0 31 -1 9 -11 -13 -7 -21 -17
-18 -25 3 -7 2 -13 -3 -13 -5 0 -12 10 -15 22 -6 22 -7 22 -20 5 -9 -12 -16
-14 -21 -7 -3 5 -11 8 -16 5 -5 -4 -9 -1 -9 6 0 8 -4 8 -15 -1 -9 -7 -18 -10
-22 -7 -3 4 -14 2 -24 -4 -14 -7 -19 -6 -19 3 0 10 -2 10 -9 -1 -11 -17 -64
-6 -58 12 2 7 22 19 44 27 29 11 37 18 29 26 -8 8 -14 8 -21 -1 -5 -7 -21 -16
-35 -20 l-25 -6 24 21 c13 11 21 23 17 27 -3 3 -16 -2 -27 -13 l-22 -19 7 30
6 30 -26 -30 c-19 -22 -24 -24 -19 -10 12 35 11 37 -20 41 -17 2 -37 -3 -47
-13 -17 -15 -18 -15 -18 5 0 12 -6 22 -14 22 -9 0 -12 -7 -9 -19 3 -10 0 -22
-6 -25 -7 -5 -11 2 -11 17 0 17 -5 24 -18 23 -9 0 -20 -5 -24 -11 -8 -11 -58
-15 -58 -5 0 3 -7 15 -16 26 -8 10 -12 13 -8 5 5 -10 3 -12 -7 -6 -20 13 -52
14 -40 2 5 -5 7 -15 5 -22 -3 -7 4 -20 16 -28 13 -9 19 -20 15 -27 -6 -9 -10
-9 -16 1 -7 11 -9 9 -9 -5 0 -18 -1 -19 -20 -1 -25 22 -36 14 -20 -14 14 -27
0 -60 -17 -39 -6 7 -13 27 -16 43 -3 26 -4 24 -6 -10 -2 -59 -12 -68 -78 -72
-32 -1 -53 0 -47 3 7 3 10 14 7 25 -9 34 17 109 58 170 44 65 44 74 3 32 -15
-16 -22 -20 -15 -10 8 9 11 17 7 17 -3 0 1 16 9 36 23 55 17 55 -11 1 -14 -26
-32 -51 -40 -54 -13 -5 -13 -7 -2 -14 10 -7 2 -20 -34 -54 -26 -25 -54 -45
-63 -45 -25 0 22 77 54 89 14 5 20 10 13 10 -8 1 -10 6 -6 14 4 6 -1 5 -12 -4
-15 -13 -112 -67 -157 -87 -4 -2 1 10 10 27 10 17 21 31 24 31 3 0 14 7 25 16
18 14 18 15 -3 4 l-23 -11 20 52 c29 72 19 71 -15 -2 -28 -59 -48 -77 -102
-93 -20 -7 -23 -4 -23 22 0 26 6 32 43 46 23 9 30 14 15 11 -14 -3 -33 -7 -41
-11 -10 -3 -18 5 -25 25 -6 17 -13 31 -16 31 -3 0 -1 -12 4 -26 13 -34 13 -47
-2 -42 -7 3 -16 23 -19 46 -3 27 -2 39 5 35 6 -4 3 3 -8 15 l-18 21 53 4 54 3
-53 2 c-42 2 -58 7 -72 24 -18 23 -18 23 13 58 21 23 24 28 7 14 -42 -35 -47
-36 -99 -9 -58 29 -62 30 -55 12 3 -8 -10 -39 -28 -70 -25 -42 -42 -59 -71
-71 -37 -14 -38 -14 -47 7 -9 21 -10 21 -7 -3 1 -18 -3 -25 -16 -24 -9 1 -17
-2 -17 -7 0 -5 -4 -9 -10 -9 -17 0 -11 32 15 90 15 32 18 47 9 35 -24 -30 -44
-81 -44 -113 0 -21 -7 -32 -25 -40 -37 -17 -37 -17 -14 41 46 115 57 146 53
150 -2 2 15 26 38 53 41 48 41 48 5 15 -20 -19 -37 -31 -37 -25 -1 5 -6 -4
-13 -20 -11 -26 -22 -31 -105 -51 -51 -12 -92 -19 -92 -14 0 4 26 36 57 71
l57 63 -53 -50 c-46 -43 -53 -46 -48 -25 l6 24 -22 -26 c-25 -30 -75 -60 -61
-36 15 24 28 39 99 117 62 67 64 71 20 32 -27 -23 -76 -70 -107 -104 -32 -33
-61 -58 -65 -53 -4 4 -2 11 6 15 10 7 9 10 -3 14 -28 11 -18 44 19 67 39 24
41 27 20 27 -8 0 -15 -4 -15 -8 0 -13 -29 -18 -36 -7 -4 7 -3 8 4 4 10 -6 17
6 10 18 -6 8 38 49 72 67 19 10 31 18 25 19 -5 0 -36 -15 -67 -34 -38 -23 -64
-33 -79 -29 -21 6 -21 7 -3 21 18 14 18 14 -1 7 -22 -8 -29 -9 -67 -7 -21 2
-29 9 -38 36 -6 18 -23 44 -37 57 l-27 24 17 -26 c15 -25 15 -28 -2 -43 -16
-14 -19 -13 -48 17 l-31 33 21 29 c17 25 13 23 -24 -11 -60 -56 -96 -77 -102
-61 -3 7 -6 6 -6 -4 -1 -16 -57 -47 -67 -37 -2 3 21 26 53 52 45 38 62 46 82
41 25 -5 25 -5 7 10 -21 16 -51 21 -42 7 2 -4 -16 -21 -42 -37 -26 -16 -53
-35 -60 -42 -10 -10 -17 -10 -31 -1 -11 6 -18 16 -16 22 2 6 6 27 9 46 4 25 3
31 -4 20 -8 -12 -10 -10 -11 10 -1 14 -2 31 -2 37 1 7 -3 10 -8 7 -5 -3 -9 0
-9 6 0 20 55 33 175 41 l120 7 -135 -2 c-113 -2 -143 -5 -182 -23 -33 -15 -48
-18 -52 -10 -2 7 -5 5 -5 -5 -1 -25 -24 -28 -39 -4 -12 19 -12 19 -7 -9 4 -24
1 -35 -19 -52 l-24 -21 2 31 c2 18 4 37 5 44 0 7 16 29 33 49 26 30 28 35 11
26 -12 -7 -37 -30 -54 -52 -18 -22 -36 -40 -42 -40 -5 0 -6 19 -3 42 5 40 5
41 -5 11 -9 -31 -29 -46 -29 -22 0 5 -4 7 -10 4 -5 -3 -10 -3 -10 2 0 4 -12 9
-28 9 l-27 1 29 -12 c31 -13 46 -53 25 -66 -15 -9 -41 0 -33 12 3 5 -4 9 -15
9 -23 0 -28 15 -8 24 6 3 -1 3 -18 0 l-30 -5 25 16 c24 16 16 15 -22 0 -23 -9
-37 23 -17 39 8 6 15 19 15 29 2 14 -1 15 -11 7 -10 -9 -14 -6 -18 12 -3 19
-5 18 -6 -7 -2 -45 -14 -57 -45 -49 -16 4 -24 9 -19 13 5 3 19 32 31 64 26 68
29 132 7 140 -11 5 -12 2 -4 -16 14 -32 -20 -120 -78 -199 -62 -86 -59 -84
-77 -52 -15 29 -16 29 -13 4 1 -14 6 -28 11 -31 5 -4 5 -12 2 -18 -15 -23 -25
-10 -24 32 0 34 6 49 36 81 26 27 30 35 15 27 -12 -6 -25 -16 -28 -21 -3 -6
-13 -10 -21 -10 -10 0 -14 14 -15 53 -1 77 -17 108 -18 34 -1 -36 -5 -56 -11
-52 -6 3 -7 -1 -4 -10 7 -17 -14 -75 -27 -75 -5 0 -8 -3 -8 -7 5 -32 -5 -19
-21 27 -10 30 -15 59 -11 65 12 14 51 123 50 138 0 7 -8 -6 -17 -28 -31 -73
-52 -105 -70 -105 -11 0 -13 -3 -5 -8 9 -5 6 -17 -10 -42 l-22 -35 -5 30 c-3
17 -1 33 5 37 5 4 6 8 1 8 -5 0 -1 10 10 22 10 12 13 18 7 14 -17 -10 -16 -1
4 32 16 26 15 26 -17 -4 l-32 -32 -30 34 c-33 38 -31 50 13 59 17 4 28 9 25
12 -3 3 -25 -2 -49 -10 -27 -9 -50 -11 -58 -6 -20 12 -37 11 -19 -2 13 -8 12
-12 -7 -26 -26 -17 -31 -35 -8 -27 19 8 19 -7 0 -32 -23 -31 -17 -34 24 -11
22 12 38 23 36 25 -2 2 -13 -1 -24 -8 -20 -10 -21 -9 -15 17 9 35 10 37 27 30
14 -5 57 -79 57 -98 0 -7 -11 -9 -25 -7 -14 3 -25 1 -25 -4 0 -4 -12 -1 -28 9
l-27 17 19 -22 c23 -26 11 -29 -17 -5 -19 18 -20 17 -8 -5 10 -18 10 -26 0
-38 -10 -12 -9 -13 4 -9 25 10 33 -17 9 -33 l-22 -14 0 -894 0 -894 9600 0
9600 0 0 895 c0 644 -4 894 -12 892 -6 -1 -12 10 -15 26 -3 21 0 27 14 27 14
0 15 2 4 9 -9 6 -10 11 -2 15 6 4 11 11 11 16 0 13 -30 0 -52 -22 -22 -22 -38
-23 -38 -4 0 11 -7 13 -29 6 -22 -6 -41 -3 -78 14 l-48 23 70 74 c71 75 46 60
-32 -19 -34 -34 -43 -39 -45 -25 -3 38 3 58 30 92 l27 36 6 -30 c7 -28 7 -27
6 7 l-1 38 -28 -27 c-16 -15 -40 -51 -53 -79 -14 -29 -37 -66 -51 -83 -25 -30
-27 -31 -45 -15 -11 9 -19 22 -19 28 0 6 21 33 48 60 26 28 36 42 22 31 -14
-10 -38 -32 -53 -49 l-28 -31 -25 28 c-13 16 -21 34 -18 40 4 7 -12 -8 -36
-33 -31 -33 -40 -39 -35 -22 9 31 -3 27 -16 -5 -6 -16 -13 -23 -16 -16 -8 23
18 94 49 129 l31 35 -27 -12 c-29 -14 -93 -130 -88 -161 2 -10 -1 -18 -6 -18
-15 0 -38 33 -56 80 -10 25 -28 62 -41 82 -24 36 -24 37 -4 43 11 4 18 9 15
12 -11 11 -118 -30 -160 -62 -26 -19 -50 -35 -55 -35 -23 0 -21 24 5 53 l29
32 -35 -30 c-19 -16 -36 -33 -38 -38 -2 -4 -9 -4 -15 0 -7 3 -9 3 -5 -1 3 -4
-3 -17 -14 -28 -23 -23 -23 -22 -32 14 -3 16 -1 32 6 40 7 8 27 30 43 49 l30
34 -32 -29 c-17 -15 -36 -25 -41 -22 -5 3 -16 -2 -23 -12 -13 -15 -12 -16 4
-3 18 14 22 5 8 -18 -7 -12 -13 -12 -24 -3 -11 9 -18 8 -32 -8 -25 -27 -33
-25 -45 13 -9 30 -10 29 -5 -14 3 -37 0 -50 -19 -70 -13 -14 -27 -36 -31 -49
-25 -77 -37 157 -14 268 13 64 42 127 61 135 10 4 10 6 1 6 -7 1 -22 -8 -33
-19z m-540 -137 c0 -26 -16 -47 -29 -39 -8 5 -6 15 6 31 22 29 23 30 23 8z
m-272 -112 c-2 -18 -8 -25 -20 -23 -13 2 -16 -2 -11 -14 4 -12 3 -15 -6 -10
-6 4 -11 13 -10 19 3 25 -1 38 -11 32 -6 -4 -7 -11 -4 -17 4 -6 2 -8 -3 -5
-14 8 -5 79 11 89 18 12 58 -40 54 -71z m251 60 c17 -11 9 -65 -13 -87 -13
-13 -16 -10 -26 27 -8 30 -8 44 1 55 13 16 19 17 38 5z m-347 -33 c-6 -6 -16
-7 -23 -3 -9 6 -7 12 7 22 21 15 34 -1 16 -19z m-118 8 c22 -11 24 -15 10 -20
-17 -6 -44 9 -44 25 0 12 3 11 34 -5z m493 -23 c-3 -10 -5 -4 -5 12 0 17 2 24
5 18 2 -7 2 -21 0 -30z m73 -4 c0 -11 -27 -12 -34 0 -3 4 -3 11 0 14 8 8 34
-3 34 -14z m75 1 c-3 -5 -11 -10 -16 -10 -6 0 -7 5 -4 10 3 6 11 10 16 10 6 0
7 -4 4 -10z m839 -32 l25 -42 -65 -43 c-59 -40 -84 -47 -84 -23 0 4 12 13 28
19 l27 11 -26 -5 c-19 -3 -29 0 -33 12 -4 9 -3 19 2 22 5 3 12 16 16 28 8 25
51 63 72 63 7 0 24 -19 38 -42z m-1396 12 c23 -21 30 -36 12 -25 -5 3 -10 2
-10 -4 0 -5 -7 -17 -16 -26 -15 -15 -18 -14 -40 6 -27 25 -30 39 -12 57 18 18
41 15 66 -8z m-858 -5 c20 -10 33 -28 41 -55 7 -22 16 -37 20 -34 5 3 9 -2 9
-12 0 -13 -7 -15 -37 -10 l-38 6 34 -15 c27 -12 31 -18 22 -29 -10 -12 -22 -7
-77 31 -35 24 -64 47 -64 49 0 16 46 84 57 84 2 0 17 -7 33 -15z m1625 -15
c-7 -24 -28 -22 -33 2 -2 9 5 18 15 20 24 6 26 3 18 -22z m-241 11 c3 -5 -8
-24 -24 -42 l-30 -34 2 35 c1 19 7 38 13 42 14 10 33 10 39 -1z m79 -5 c3 -8
3 -17 0 -20 -9 -9 -34 15 -27 25 8 13 21 11 27 -5z m-443 -12 c0 -8 -4 -12
-10 -9 -5 3 -10 10 -10 16 0 5 5 9 10 9 6 0 10 -7 10 -16z m170 -23 c0 -3 -16
-19 -35 -34 -19 -15 -35 -26 -35 -23 0 2 9 26 21 53 19 45 21 47 35 29 8 -11
14 -22 14 -25z m390 29 c0 -5 -8 -10 -17 -10 -14 0 -15 -2 -4 -9 18 -12 -3
-53 -24 -45 -20 8 -19 44 3 60 20 16 42 18 42 4z m337 -52 c1 -40 -2 -60 -13
-69 -12 -10 -13 -9 -7 7 6 17 5 17 -10 5 -24 -20 -21 -2 6 28 14 16 15 20 4
11 -16 -12 -20 -12 -28 1 -13 21 -11 40 8 61 26 29 37 16 40 -44z m-1327 32
c0 -11 -4 -20 -10 -20 -5 0 -10 2 -10 4 0 2 -3 11 -6 20 -4 11 -1 16 10 16 9
0 16 -8 16 -20z m680 16 c0 -2 -7 -9 -15 -16 -13 -11 -14 -10 -9 4 5 14 24 23
24 12z m-948 -77 c-4 -28 -5 -29 -23 -13 -17 15 -18 15 -16 -4 0 -11 5 -20 10
-19 5 1 12 -4 15 -12 3 -9 0 -11 -8 -6 -10 6 -12 3 -6 -10 5 -15 4 -16 -9 -5
-10 8 -15 26 -13 49 1 21 -2 43 -6 49 -4 7 -2 20 5 28 20 24 57 -17 51 -57z
m323 57 c11 -7 25 -13 30 -13 6 0 12 -8 14 -18 3 -17 1 -18 -13 -6 -14 11 -16
11 -16 -3 0 -22 -27 -20 -40 3 -8 16 -6 20 8 24 12 3 11 5 -6 6 -13 0 -20 6
-17 11 8 13 17 13 40 -4z m118 -10 c9 -11 15 -21 13 -23 -8 -8 -56 21 -56 34
0 18 21 12 43 -11z m747 2 c0 -16 -3 -19 -11 -11 -6 6 -8 16 -5 22 11 17 16
13 16 -11z m529 9 c8 -10 2 -23 -26 -53 -20 -21 -36 -43 -34 -49 1 -5 -3 -5
-10 2 -15 15 -6 52 22 86 23 30 32 33 48 14z m81 -6 c-5 -11 -7 -28 -3 -38 7
-17 6 -17 -11 0 -18 17 -18 19 -1 37 23 25 29 25 15 1z m-2040 -16 c6 -8 10
-21 8 -29 -2 -11 -8 -7 -20 14 -18 31 -10 41 12 15z m113 -15 c31 -36 44 -73
28 -78 -6 -2 -8 -9 -5 -14 4 -7 2 -8 -5 -4 -6 4 -9 11 -7 15 3 4 -13 25 -34
46 -30 30 -37 42 -29 52 16 19 24 16 52 -17z m712 0 c-4 -12 -9 -19 -12 -17
-3 3 -2 15 2 27 4 12 9 19 12 17 3 -3 2 -15 -2 -27z m585 -12 c0 -8 -69 -1
-78 8 -2 1 9 9 25 18 25 13 29 13 41 -1 6 -9 12 -21 12 -25z m113 23 c3 -12
-1 -22 -10 -25 -23 -9 -34 3 -20 24 15 25 23 25 30 1z m-307 -25 c2 -14 0 -26
-6 -26 -5 0 -10 10 -11 23 -1 21 -1 21 -8 -3 -5 -18 -9 -21 -15 -12 -5 8 -1
21 10 33 20 22 23 21 30 -15z m-684 1 c17 -32 16 -53 -4 -66 -11 -7 -17 -8
-14 -3 3 6 0 13 -6 15 -8 4 -3 9 11 13 23 7 24 8 4 15 -24 9 -38 48 -16 45 9
-2 20 -10 25 -19z m1223 -57 c-14 -16 -20 -17 -27 -8 -5 9 -8 7 -9 -7 0 -11
-3 -14 -6 -7 -2 6 6 33 18 60 l23 47 10 -33 c7 -26 5 -36 -9 -52z m455 25 c0
-34 -3 -43 -14 -39 -8 3 -17 1 -21 -5 -3 -7 2 -11 14 -11 12 0 21 -6 21 -14 0
-9 -8 -12 -25 -8 -14 2 -25 11 -25 18 0 14 -25 15 -45 2 -16 -10 -39 8 -30 22
4 6 13 9 20 6 7 -2 12 1 11 9 -1 16 73 77 85 69 5 -3 9 -25 9 -49z m-1733 23
c-3 -8 -6 -5 -6 6 -1 11 2 17 5 13 3 -3 4 -12 1 -19z m182 8 c9 -11 8 -15 -5
-20 -26 -10 -34 -7 -34 14 0 23 22 27 39 6z m316 -7 c10 -30 0 -33 -13 -4 -6
14 -7 25 -2 25 5 0 12 -9 15 -21z m145 5 c0 -8 -4 -12 -10 -9 -5 3 -10 -2 -10
-12 0 -20 -18 -43 -33 -43 -4 0 2 18 14 40 24 42 39 51 39 24z m483 -30 c-4
-10 -10 -11 -24 -3 -19 10 -25 30 -12 42 10 11 42 -23 36 -39z m836 -36 c-14
-27 -29 -31 -29 -8 0 12 -4 19 -9 16 -5 -3 -14 1 -21 9 -10 12 -9 20 5 41 l17
26 23 -34 c16 -23 20 -38 14 -50z m-2545 18 c32 -29 54 -56 48 -60 -15 -9 -43
4 -35 18 5 8 3 8 -8 0 -8 -6 -23 -9 -34 -7 -11 2 -28 4 -38 4 -16 0 -18 7 -13
47 2 26 5 48 5 50 3 10 25 -5 75 -52z m563 41 c0 -7 3 -25 7 -40 6 -24 4 -28
-10 -25 -31 6 -40 34 -20 57 22 25 23 25 23 8z m1003 3 c0 -5 -4 -10 -10 -10
-5 0 -10 5 -10 10 0 6 5 10 10 10 6 0 10 -4 10 -10z m539 -7 c0 -16 -59 -74
-59 -59 0 11 45 76 53 76 4 0 7 -8 6 -17z m-2349 -46 c0 -10 -7 -20 -15 -23
-8 -4 -15 -12 -15 -20 0 -21 -18 -17 -30 6 -8 14 -7 26 1 43 23 44 30 49 45
30 7 -10 14 -26 14 -36z m636 36 c15 -21 19 -73 4 -73 -14 0 -30 35 -30 64 0
30 8 33 26 9z m1044 7 c0 -5 -5 -10 -11 -10 -5 0 -7 5 -4 10 3 6 8 10 11 10 2
0 4 -4 4 -10z m73 -7 c13 -8 7 -25 -7 -20 -7 3 -19 0 -25 -6 -10 -10 -13 -5
-10 19 0 4 -5 11 -13 16 -13 8 38 0 55 -9z m-1357 -20 c-3 -8 -2 -11 4 -8 5 3
14 -3 19 -14 17 -32 13 -34 -17 -9 -18 14 -27 30 -24 40 2 10 9 15 14 12 5 -3
7 -13 4 -21z m534 17 c0 -5 -2 -10 -4 -10 -3 0 -8 5 -11 10 -3 6 -1 10 4 10 6
0 11 -4 11 -10z m940 1 c0 -15 -16 -22 -35 -15 -13 5 -14 8 -3 15 18 12 38 11
38 0z m-810 -27 c0 -8 -4 -14 -9 -14 -11 0 -22 26 -14 34 9 9 23 -3 23 -20z
m105 17 c3 -5 1 -12 -5 -16 -5 -3 -10 1 -10 9 0 18 6 21 15 7z m1744 -77 c-22
-27 -29 1 -11 46 l17 45 3 -38 c2 -21 -2 -45 -9 -53z m-1912 57 c-1 -12 -7
-17 -19 -13 -19 5 -23 14 -11 25 13 14 32 7 30 -12z m693 0 c0 -11 -5 -23 -12
-27 -8 -5 -9 -2 -5 9 3 10 2 17 -4 17 -6 0 -7 5 -4 10 10 17 25 11 25 -9z
m687 -3 c-3 -8 -6 -5 -6 6 -1 11 2 17 5 13 3 -3 4 -12 1 -19z m-18127 -24 c0
-6 -11 -17 -25 -24 -14 -7 -25 -18 -25 -23 0 -6 8 -3 18 6 24 22 42 21 42 -1
0 -24 -19 -42 -46 -42 -12 0 -24 -3 -27 -7 -2 -5 -2 -1 1 7 2 8 5 24 6 35 2
11 11 35 20 54 14 26 20 31 27 20 5 -8 9 -19 9 -25z m15230 6 c0 -20 -5 -30
-15 -30 -15 0 -21 40 -8 53 14 15 23 6 23 -23z m357 -68 c-15 -19 -36 22 -36
68 l0 35 24 -45 c17 -33 20 -48 12 -58z m2007 56 c-10 -16 -37 -4 -40 20 -4
22 -3 22 21 6 14 -9 22 -20 19 -26z m83 27 c0 -8 -4 -15 -9 -15 -4 0 -8 7 -8
15 0 8 4 15 8 15 5 0 9 -7 9 -15z m803 -6 c7 -11 9 -24 5 -27 -3 -3 -8 4 -12
16 -3 12 -9 19 -14 16 -5 -3 -9 0 -9 5 0 18 19 12 30 -10z m-2375 2 c3 -5 1
-12 -5 -16 -5 -3 -10 1 -10 9 0 18 6 21 15 7z m1987 -14 c-7 -8 -9 -17 -5 -20
3 -4 -2 -7 -13 -7 -14 0 -15 -3 -6 -9 10 -6 10 -10 -3 -21 -12 -10 -19 -10
-27 -2 -9 9 -4 20 22 47 31 32 56 42 32 12z m278 -22 c0 -7 -9 -20 -20 -30
-20 -18 -20 -18 -19 28 2 45 3 46 21 31 10 -10 18 -22 18 -29z m400 14 c0 -8
-15 -13 -32 -10 -5 0 -8 -5 -8 -11 0 -20 -20 14 -20 34 0 15 4 15 30 7 17 -6
30 -15 30 -20z m-3471 -16 c2 -2 -8 -3 -22 -3 -21 0 -27 5 -27 22 0 21 0 21
23 2 12 -10 24 -20 26 -21z m472 23 c-1 -3 -4 -7 -8 -8 -5 0 -14 -8 -21 -17
-10 -12 -12 -13 -6 -1 16 33 38 49 35 26z m900 1 c-6 -8 -8 -17 -4 -20 3 -4
-2 -9 -11 -13 -10 -4 -22 -2 -28 4 -7 7 -3 12 11 17 12 3 21 11 21 16 0 5 5 9
11 9 8 0 9 -4 0 -13z m574 -26 c-4 -17 -11 -31 -16 -31 -12 0 -11 12 1 46 14
35 24 24 15 -15z m611 -3 c-19 -26 -22 -7 -4 25 7 13 13 17 15 10 3 -7 -3 -23
-11 -35z m717 -14 c-5 -15 -14 -29 -20 -31 -18 -6 -25 32 -12 61 11 23 14 25
27 12 11 -10 12 -21 5 -42z m-18753 36 c0 -5 -4 -10 -10 -10 -5 0 -10 5 -10
10 0 6 5 10 10 10 6 0 10 -4 10 -10z m454 -6 c7 -18 -27 -56 -59 -67 -19 -7
-19 -6 -2 7 18 14 24 32 8 21 -5 -3 -3 8 5 25 17 33 38 39 48 14z m15242 0
c-3 -9 -6 -22 -6 -29 0 -11 -6 -12 -30 -4 -37 13 -38 22 -2 36 39 16 45 15 38
-3z m373 4 c-2 -7 1 -28 5 -46 11 -46 1 -51 -23 -11 -19 31 -19 35 -4 51 19
21 25 23 22 6z m1593 -10 c-7 -7 -12 -8 -12 -2 0 14 12 26 19 19 2 -3 -1 -11
-7 -17z m-1290 -60 c-12 -12 -44 2 -39 16 2 6 -2 17 -10 24 -7 7 -13 18 -13
25 0 6 16 -4 35 -23 19 -19 31 -38 27 -42z m186 47 c7 -14 12 -29 12 -33 -1
-10 -40 38 -40 49 0 18 17 8 28 -16z m1352 4 c0 -18 -2 -19 -15 -5 -8 8 -15
17 -15 20 0 3 7 6 15 6 9 0 15 -9 15 -21z m692 -1 c-7 -7 -12 -8 -12 -2 0 14
12 26 19 19 2 -3 -1 -11 -7 -17z m-17732 -23 c-34 -35 -55 -45 -48 -22 4 11
65 57 76 57 3 0 -9 -16 -28 -35z m14504 -87 c-2 -4 0 -9 6 -13 5 -3 10 -11 10
-16 0 -5 -11 -2 -25 7 -37 24 -42 10 -5 -16 27 -19 33 -40 11 -40 -11 0 -44
51 -44 67 0 7 -4 13 -8 13 -9 0 12 65 33 102 11 21 13 19 19 -37 4 -33 5 -63
3 -67z m495 95 c10 -21 9 -29 -3 -41 -20 -20 -37 -6 -30 26 4 21 3 24 -5 12
-6 -8 -11 -10 -11 -4 0 11 20 34 30 34 4 0 12 -12 19 -27z m1084 -14 c6 -21 5
-21 -18 1 -14 13 -22 27 -19 32 8 12 31 -8 37 -33z m1695 13 c2 -12 -1 -22 -6
-22 -15 0 -34 28 -27 40 10 17 30 6 33 -18z m352 18 c0 -5 -9 -10 -19 -10 -11
0 -23 -4 -26 -10 -3 -5 -12 -10 -18 -10 -7 0 2 9 18 20 34 22 45 25 45 10z
m-18980 -10 c0 -5 -5 -10 -11 -10 -5 0 -7 5 -4 10 3 6 8 10 11 10 2 0 4 -4 4
-10z m16129 -4 c8 -10 9 -16 1 -21 -5 -3 -10 -15 -10 -25 0 -29 -19 -34 -29
-8 -24 64 -24 68 2 68 14 0 30 -6 36 -14z m111 4 c0 -5 -2 -10 -4 -10 -3 0 -8
5 -11 10 -3 6 -1 10 4 10 6 0 11 -4 11 -10z m435 -11 c-5 -15 -4 -19 4 -15 7
4 11 -1 11 -13 0 -28 -12 -26 -26 2 -11 25 -8 47 8 47 5 0 6 -9 3 -21z m2395
11 c0 -5 -4 -10 -9 -10 -6 0 -13 5 -16 10 -3 6 1 10 9 10 9 0 16 -4 16 -10z
m-18535 -43 c-19 -10 -20 -10 -30 21 -7 24 -7 24 20 6 23 -15 24 -18 10 -27z
m112 21 c-3 -8 -6 -5 -6 6 -1 11 2 17 5 13 3 -3 4 -12 1 -19z m241 15 c-1 -5
2 -21 7 -36 6 -23 3 -33 -21 -58 -35 -37 -42 -37 -38 2 2 18 0 28 -6 24 -18
-11 -10 4 21 40 31 35 41 42 37 28z m14308 -26 c16 -17 30 -40 30 -49 2 -25
-23 -10 -35 20 -5 15 -10 21 -10 15 -1 -17 -11 -16 -35 2 -16 12 -17 17 -6 30
17 21 23 19 56 -18z m262 3 c-1 -34 -2 -34 -29 -20 -28 16 -25 50 5 50 21 0
25 -5 24 -30z m167 -9 c-3 -2 -11 1 -17 7 -7 7 -20 12 -31 12 -10 0 -15 5 -12
10 4 7 17 4 35 -7 16 -9 27 -19 25 -22z m325 20 c0 -22 -15 -35 -30 -26 -7 4
-7 13 0 26 14 25 30 25 30 0z m230 9 c8 -5 11 -12 7 -16 -4 -4 -15 0 -24 9
-18 18 -8 23 17 7z m1490 -15 c0 -20 -5 -25 -27 -25 l-26 0 23 25 c13 14 25
25 27 25 2 0 3 -11 3 -25z m-2175 5 c3 -5 2 -10 -4 -10 -5 0 -13 5 -16 10 -3
6 -2 10 4 10 5 0 13 -4 16 -10z m2376 -3 c-1 -12 -15 -9 -19 4 -3 6 1 10 8 8
6 -3 11 -8 11 -12z m584 3 c3 -5 2 -10 -4 -10 -5 0 -13 5 -16 10 -3 6 -2 10 4
10 5 0 13 -4 16 -10z m125 0 c0 -5 -4 -10 -10 -10 -5 0 -10 5 -10 10 0 6 5 10
10 10 6 0 10 -4 10 -10z m400 -5 c-16 -19 -67 -45 -75 -37 -3 3 13 16 37 29
52 27 54 27 38 8z m-18290 -43 c0 -58 -7 -68 -31 -46 -14 13 -16 21 -8 35 5
11 7 19 4 19 -3 0 -1 9 5 20 18 34 30 22 30 -28z m15468 17 c-21 -14 -26 -10
-21 11 4 16 8 18 20 9 11 -10 11 -14 1 -20z m752 -5 c0 -8 -6 -14 -12 -15 -10
0 -10 -2 0 -6 13 -5 7 -23 -8 -23 -11 0 -23 57 -15 70 9 14 35 -6 35 -26z
m-16686 18 c-6 -4 -13 -15 -17 -24 -3 -10 -11 -18 -17 -18 -6 0 -8 6 -4 13 14
25 27 37 38 37 8 0 8 -3 0 -8z m15297 -15 c-10 -9 -11 -8 -5 6 3 10 9 15 12
12 3 -3 0 -11 -7 -18z m113 -29 c-6 -10 -55 15 -74 37 -11 13 -3 11 33 -6 25
-12 44 -26 41 -31z m354 10 c-3 -47 -22 -55 -25 -11 -2 36 4 53 17 53 7 0 10
-17 8 -42z m-15527 25 c-11 -5 -11 -7 0 -15 12 -8 12 -9 0 -6 -22 6 -25 28 -4
27 12 0 14 -2 4 -6z m13835 -60 c-8 -8 -56 45 -56 62 0 5 14 -5 32 -22 18 -18
28 -36 24 -40z m890 14 c2 -17 -54 -72 -63 -63 -7 7 36 46 50 46 6 0 8 3 5 6
-4 3 -16 0 -29 -6 -19 -11 -25 -10 -36 6 -7 10 -13 12 -13 5 0 -7 -4 -9 -10
-6 -15 9 -12 23 11 46 20 20 20 20 51 0 18 -10 33 -26 34 -34z m3858 2 c-36
-40 -46 -17 -12 27 19 24 23 26 26 10 2 -9 -4 -26 -14 -37z m-18500 26 c-4 -8
-11 -12 -16 -9 -6 4 -5 10 3 15 19 12 19 11 13 -6z m86 5 c0 -5 -5 -10 -11
-10 -5 0 -7 5 -4 10 3 6 8 10 11 10 2 0 4 -4 4 -10z m15142 -25 c-12 -22 -27
-2 -18 22 5 12 10 13 17 6 7 -7 8 -17 1 -28z m-342 4 c0 -6 -4 -7 -10 -4 -5 3
-10 11 -10 16 0 6 5 7 10 4 6 -3 10 -11 10 -16z m83 -5 c22 -30 19 -50 -5 -32
-18 14 -34 58 -21 58 4 0 16 -12 26 -26z m2157 22 c0 -11 -19 -15 -25 -6 -3 5
1 10 9 10 9 0 16 -2 16 -4z m-3435 -36 c18 -34 20 -54 4 -44 -7 4 -7 -1 1 -16
17 -32 -7 -22 -34 13 -16 22 -18 31 -8 52 15 32 18 31 37 -5z m-13641 -27 c-6
-49 -32 -93 -36 -63 -6 52 -1 77 17 92 11 10 21 17 23 18 2 0 0 -21 -4 -47z
m15566 18 c-4 -14 -5 -33 -2 -41 5 -13 3 -13 -11 -1 -9 7 -15 17 -12 21 3 5
-1 10 -7 13 -17 5 5 34 26 34 10 0 12 -7 6 -26z m-15963 13 c-3 -3 -12 -4 -19
-1 -8 3 -5 6 6 6 11 1 17 -2 13 -5z m613 -4 c0 -5 -2 -10 -4 -10 -3 0 -8 5
-11 10 -3 6 -1 10 4 10 6 0 11 -4 11 -10z m13256 -45 c26 -31 44 -58 41 -61
-9 -9 -57 27 -57 43 0 8 -4 12 -9 9 -12 -8 -73 43 -65 55 13 22 46 5 90 -46z
m204 11 c0 -12 -5 -7 -19 24 -11 24 -11 24 3 6 9 -11 16 -24 16 -30z m1315 34
c3 -5 1 -10 -4 -10 -6 0 -11 5 -11 10 0 6 2 10 4 10 3 0 8 -4 11 -10z m-14427
-30 c26 -35 27 -46 6 -54 -29 -11 -37 -6 -21 12 26 29 20 38 -7 13 -24 -23
-53 -21 -39 2 3 7 -3 4 -14 -5 -23 -21 -33 -23 -33 -5 0 14 59 66 76 67 5 0
20 -13 32 -30z m13279 -11 c2 -34 -22 -73 -39 -63 -8 5 -3 57 8 92 8 25 29 5
31 -29z m264 5 c31 -32 32 -34 9 -26 -14 6 -24 15 -22 21 1 6 -2 11 -7 11 -5
0 -11 7 -15 15 -8 22 -4 19 35 -21z m1099 26 c0 -5 -4 -10 -10 -10 -5 0 -10 5
-10 10 0 6 5 10 10 10 6 0 10 -4 10 -10z m-15002 -18 c2 -7 -5 -12 -17 -12
-14 0 -19 5 -14 15 6 17 25 15 31 -3z m102 3 c0 -8 -8 -15 -17 -16 -16 0 -16
-1 -2 -7 12 -5 14 -13 8 -29 -10 -28 -25 -30 -32 -3 -3 11 3 30 15 45 23 29
28 31 28 10z m13097 -18 c23 -24 29 -37 22 -47 -8 -13 -13 -11 -29 10 -12 15
-18 18 -14 8 9 -26 -22 -23 -40 4 -18 26 -20 20 -6 -17 8 -20 7 -25 -3 -19
-38 22 -38 27 -5 61 17 18 34 33 37 33 4 0 20 -15 38 -33z m593 23 c-8 -5 -11
-10 -7 -10 14 0 -14 -40 -28 -40 -27 0 -15 41 15 53 24 9 36 7 20 -3z m1607
-12 c-3 -8 -6 -5 -6 6 -1 11 2 17 5 13 3 -3 4 -12 1 -19z m-15976 -11 c-10 -9
-11 -8 -5 6 3 10 9 15 12 12 3 -3 0 -11 -7 -18z m15000 1 c10 -13 18 -30 18
-38 0 -12 -2 -12 -6 -1 -5 11 -7 11 -14 0 -6 -10 -9 -7 -9 11 0 20 -2 22 -10
10 -7 -12 -12 -12 -21 -3 -9 9 -9 16 1 28 16 20 18 19 41 -7z m726 -25 c-6
-13 -14 -20 -19 -15 -5 5 -4 20 3 36 8 17 15 23 20 15 4 -7 2 -23 -4 -36z
m2453 37 c0 -5 -4 -10 -10 -10 -5 0 -10 5 -10 10 0 6 5 10 10 10 6 0 10 -4 10
-10z m683 -10 c-5 -19 -23 -29 -23 -12 0 7 20 32 26 32 1 0 0 -9 -3 -20z
m-17823 -27 c0 -7 -5 -13 -11 -13 -6 0 -8 7 -5 16 5 14 4 15 -9 4 -18 -15 -20
1 -3 18 13 13 28 -1 28 -25z m12588 -4 c-6 -4 -17 -5 -24 -2 -11 4 -11 10 -3
26 11 20 12 20 25 2 10 -14 11 -21 2 -26z m-13666 9 c-7 -7 -12 -8 -12 -2 0
14 12 26 19 19 2 -3 -1 -11 -7 -17z m752 13 c3 -5 -1 -14 -9 -21 -13 -10 -15
-9 -15 9 0 21 14 28 24 12z m-274 -22 c0 -5 -4 -9 -10 -9 -5 0 -10 7 -10 16 0
8 5 12 10 9 6 -3 10 -10 10 -16z m13556 -35 c1 -8 -2 -14 -7 -14 -5 0 -8 -4
-6 -9 1 -5 -2 -11 -8 -12 -5 -2 -11 6 -13 19 -2 15 2 22 15 23 17 1 17 2 1 6
-11 3 -18 14 -17 26 0 22 0 22 17 -2 9 -13 17 -30 18 -37z m434 46 c0 -5 -7
-7 -15 -4 -8 4 -15 8 -15 10 0 2 7 4 15 4 8 0 15 -4 15 -10z m682 -43 c16 -31
-1 -33 -27 -3 -32 37 -35 68 -4 40 11 -10 25 -27 31 -37z m2454 26 c-10 -10
-19 5 -10 18 6 11 8 11 12 0 2 -7 1 -15 -2 -18z m-16760 -8 c-10 -8 -23 -12
-28 -9 -6 4 1 12 14 18 29 16 39 9 14 -9z m13794 21 c0 -15 -14 -35 -21 -30
-15 9 -10 34 6 34 8 0 15 -2 15 -4z m286 -23 c-10 -10 -19 5 -10 18 6 11 8 11
12 0 2 -7 1 -15 -2 -18z m84 -15 c0 -22 -5 -22 -29 -2 -11 10 -17 23 -14 30 7
19 43 -5 43 -28z m295 32 c3 -5 2 -10 -4 -10 -5 0 -13 5 -16 10 -3 6 -2 10 4
10 5 0 13 -4 16 -10z m565 -27 c-11 -17 -11 -17 -6 0 3 10 6 24 7 30 0 9 2 9
5 0 3 -7 0 -20 -6 -30z m730 -6 c0 -5 -7 -4 -15 3 -8 7 -15 20 -15 29 1 13 3
13 15 -3 8 -11 15 -24 15 -29z m-2471 5 c0 -11 -2 -12 -6 -4 -2 6 -9 10 -14 6
-10 -6 -12 9 -3 19 10 10 24 -2 23 -21z m575 8 c3 -11 9 -29 12 -40 4 -15 1
-20 -13 -19 -12 0 -14 2 -4 6 7 3 9 8 4 12 -14 9 -25 61 -14 61 5 0 12 -9 15
-20z m-1124 -15 l23 -25 -23 0 c-21 0 -22 -1 -7 -12 11 -8 14 -18 8 -26 -6
-10 -19 -3 -51 30 -24 24 -37 35 -30 26 7 -10 9 -18 5 -18 -5 0 -1 -8 7 -17
26 -31 30 -43 13 -43 -16 0 -30 28 -37 70 -2 18 3 26 22 31 40 11 45 10 70
-16z m20 15 c0 -5 -4 -10 -9 -10 -6 0 -13 5 -16 10 -3 6 1 10 9 10 9 0 16 -4
16 -10z m730 -16 c12 -31 12 -37 2 -30 -4 2 -8 -7 -7 -21 0 -14 -6 -28 -12
-30 -10 -3 -13 11 -13 51 0 59 14 73 30 30z m-13420 12 c0 -3 -4 -8 -10 -11
-5 -3 -10 -1 -10 4 0 6 5 11 10 11 6 0 10 -2 10 -4z m175 -6 c3 -5 1 -10 -4
-10 -6 0 -11 5 -11 10 0 6 2 10 4 10 3 0 8 -4 11 -10z m50 0 c-3 -5 -10 -10
-16 -10 -5 0 -9 5 -9 10 0 6 7 10 16 10 8 0 12 -4 9 -10z m12505 6 c0 -3 -4
-8 -10 -11 -5 -3 -10 -1 -10 4 0 6 5 11 10 11 6 0 10 -2 10 -4z m245 -16 c8 0
16 -4 19 -9 8 -12 -26 -9 -40 4 -7 6 -9 14 -6 20 3 5 7 4 10 -3 2 -7 10 -12
17 -12z m-12831 -13 c2 -10 2 -16 -1 -13 -4 3 -12 1 -19 -4 -9 -8 -12 -5 -10
13 1 28 22 32 30 4z m154 2 c2 -5 8 -7 12 -4 5 3 -3 -15 -16 -40 -14 -25 -32
-45 -40 -45 -21 0 -17 8 16 42 35 34 32 53 -3 21 -12 -11 -32 -26 -44 -32 -19
-10 -23 -9 -23 5 0 9 10 19 23 22 20 6 20 7 -8 12 l-30 6 30 17 c30 17 77 15
83 -4z m12471 -23 c1 -5 -5 -3 -12 3 -8 6 -17 7 -22 3 -4 -4 -2 4 5 18 13 23
14 24 21 5 4 -11 8 -24 8 -29z m1706 34 c3 -5 1 -10 -4 -10 -6 0 -11 5 -11 10
0 6 2 10 4 10 3 0 8 -4 11 -10z m-14539 -15 c-26 -19 -42 -19 -26 0 7 8 20 15
29 15 13 -1 13 -3 -3 -15z m144 0 c0 -10 -9 -14 -31 -11 -21 2 -29 0 -26 -9 4
-8 -3 -10 -19 -7 -47 9 -17 29 34 23 6 -1 12 3 12 9 0 5 7 10 15 10 8 0 15 -7
15 -15z m11935 -46 c8 -29 12 -55 10 -57 -2 -3 -16 3 -30 12 -14 9 -25 14 -25
10 0 -3 -12 9 -26 26 -15 17 -25 33 -22 35 7 7 73 33 76 30 2 -2 10 -27 17
-56z m825 45 c0 -2 -9 -8 -20 -14 -17 -9 -20 -8 -20 9 0 14 5 18 20 14 11 -3
20 -7 20 -9z m4555 6 c-3 -5 -10 -10 -16 -10 -5 0 -9 5 -9 10 0 6 7 10 16 10
8 0 12 -4 9 -10z m-17541 -15 c-10 -8 -26 -14 -34 -14 -9 0 -4 6 10 14 33 19
49 19 24 0z m15136 -6 c0 -14 -17 -10 -23 5 -4 10 -1 13 9 9 7 -3 14 -9 14
-14z m-885 2 c3 -5 1 -12 -4 -15 -5 -3 -11 1 -15 9 -6 16 9 21 19 6z m-1219
-13 c4 -6 2 -14 -4 -16 -7 -2 -10 -7 -8 -11 3 -4 1 -13 -4 -21 -8 -13 -12 -13
-26 1 -15 16 -15 17 5 24 12 3 19 11 15 16 -3 6 -15 4 -30 -6 -24 -15 -24 -15
-12 5 14 22 52 27 64 8z m84 -3 c16 -19 0 -19 -26 0 -16 12 -16 14 -3 15 9 0
22 -7 29 -15z m370 5 c0 -5 -4 -10 -10 -10 -5 0 -10 5 -10 10 0 6 5 10 10 10
6 0 10 -4 10 -10z m-13275 -10 c3 -5 2 -10 -4 -10 -5 0 -13 5 -16 10 -3 6 -2
10 4 10 5 0 13 -4 16 -10z m-35 -10 c8 -5 11 -10 5 -10 -5 0 -4 -4 4 -9 10 -7
6 -9 -13 -8 -16 1 -24 7 -22 14 3 6 0 14 -7 17 -8 3 -6 5 3 5 8 0 22 -4 30 -9z
m11890 -5 c0 -9 -9 -15 -21 -15 -18 0 -19 2 -9 15 7 8 16 15 21 15 5 0 9 -7 9
-15z m1124 0 c11 -8 18 -17 15 -19 -2 -3 -15 4 -29 14 -14 11 -20 20 -15 19 6
0 19 -6 29 -14z m713 -7 c-3 -8 -6 -5 -6 6 -1 11 2 17 5 13 3 -3 4 -12 1 -19z
m-1389 -56 c10 -7 10 -15 2 -37 -9 -23 -13 -26 -20 -15 -5 8 -6 18 -4 22 3 4
-10 7 -30 6 -24 -2 -31 -6 -25 -14 6 -7 4 -16 -6 -24 -12 -10 -16 -10 -19 1
-5 15 -26 116 -26 125 0 4 103 -47 128 -64z m58 41 c7 -10 14 -24 14 -30 0
-19 -17 -16 -24 5 -3 9 -9 23 -12 30 -9 18 7 15 22 -5z m-12516 -2 c0 -12 -20
-25 -27 -18 -7 7 6 27 18 27 5 0 9 -4 9 -9z m11996 -11 c26 -10 26 -11 9 -30
-10 -11 -22 -17 -26 -14 -5 3 -9 0 -9 -6 0 -16 -39 -70 -51 -70 -13 0 -11 13
12 75 22 59 24 60 65 45z m744 6 c0 -11 -19 -15 -25 -6 -3 5 1 10 9 10 9 0 16
-2 16 -4z m330 -37 c0 -17 -18 -9 -35 17 l-16 25 25 -16 c14 -10 26 -21 26
-26z m-12805 12 c-3 -6 -16 -16 -28 -22 -21 -11 -21 -10 2 15 23 25 40 29 26
7z m60 9 c3 -5 -1 -10 -10 -10 -9 0 -13 5 -10 10 3 6 8 10 10 10 2 0 7 -4 10
-10z m12475 -11 c17 -30 6 -34 -14 -4 -9 14 -12 25 -7 25 6 0 15 -9 21 -21z
m-11795 -11 l37 -21 -33 -26 c-19 -14 -37 -26 -40 -26 -4 0 -11 -3 -15 -7 -4
-5 -16 -8 -26 -8 -11 0 -18 3 -16 8 16 34 52 102 54 102 2 0 19 -10 39 -22z
m-455 5 c0 -5 -9 -19 -20 -33 -21 -26 -27 -12 -10 21 10 19 30 26 30 12z
m11537 -62 c37 -67 47 -142 22 -165 -9 -8 -10 -8 -5 1 4 7 2 21 -4 30 -10 16
-11 16 -5 -2 5 -16 3 -17 -6 -8 -6 6 -12 25 -13 41 -1 17 -4 28 -8 26 -5 -3
-15 30 -34 124 -9 42 16 20 53 -47z m-12082 49 c-3 -5 -10 -10 -16 -10 -5 0
-9 5 -9 10 0 6 7 10 16 10 8 0 12 -4 9 -10z m355 0 c0 -5 -5 -10 -11 -10 -5 0
-7 5 -4 10 3 6 8 10 11 10 2 0 4 -4 4 -10z m11750 -23 c0 -20 0 -20 -15 -1
-19 25 -19 35 0 28 8 -4 15 -16 15 -27z m-11421 -29 c-25 -65 -37 -78 -49 -58
-7 10 -5 19 6 27 14 10 14 12 -5 10 -11 -1 -21 -7 -21 -13 0 -7 -7 -14 -15
-18 -18 -7 -20 5 -3 22 8 8 8 12 1 12 -6 0 -14 -7 -17 -16 -8 -20 -19 -12 -23
16 -3 20 1 23 87 58 14 6 33 11 42 11 16 1 16 -3 -3 -51z m11331 36 c0 -8 -4
-12 -10 -9 -5 3 -10 10 -10 16 0 5 5 9 10 9 6 0 10 -7 10 -16z m490 8 c0 -5
-7 -9 -15 -9 -8 0 -12 4 -9 9 3 4 9 8 15 8 5 0 9 -4 9 -8z m204 -7 c3 -9 0
-15 -9 -15 -16 0 -27 14 -18 24 10 10 21 7 27 -9z m-560 -59 c20 -62 20 -77 0
-48 -8 12 -12 27 -9 32 3 6 2 10 -3 10 -5 0 -9 6 -10 13 0 6 -4 23 -8 37 -12
45 12 8 30 -44z m893 38 c-9 -9 -28 6 -21 18 4 6 10 6 17 -1 6 -6 8 -13 4 -17z
m-12702 6 c3 -6 -1 -13 -10 -16 -19 -8 -30 0 -20 15 8 14 22 14 30 1z m12083
-8 c2 -8 -3 -10 -15 -6 -14 4 -13 1 5 -12 22 -17 30 -44 12 -44 -5 0 -10 -7
-10 -16 0 -10 -8 -6 -24 13 -23 27 -24 29 -8 56 16 27 32 31 40 9z m-11370
-10 c2 -7 -6 -12 -17 -12 -21 0 -27 11 -14 24 9 9 26 2 31 -12z m10962 -63 c0
-44 -8 -48 -35 -19 -14 16 -15 24 -6 51 16 47 12 49 -10 4 -12 -27 -19 -33
-19 -20 0 11 7 31 17 44 l16 24 19 -23 c10 -13 18 -38 18 -61z m460 66 c-7 -9
-15 -13 -17 -11 -7 7 7 26 19 26 6 0 6 -6 -2 -15z m23 -18 c-10 -12 -19 -23
-19 -25 -1 -2 -5 1 -8 6 -8 13 23 54 35 46 6 -4 3 -15 -8 -27z m275 -3 c-10
-10 -28 6 -28 24 0 15 1 15 17 -1 9 -9 14 -19 11 -23z m-12508 6 c-10 -19 -30
-28 -30 -14 0 6 30 33 38 34 1 0 -2 -9 -8 -20z m11917 12 c7 -5 9 -13 4 -21
-7 -11 -11 -9 -20 8 -12 21 -6 27 16 13z m-11637 -28 c14 -35 13 -39 -5 -24
-9 7 -14 19 -11 26 3 7 0 15 -7 18 -9 3 -9 5 1 5 7 1 17 -11 22 -25z m540 -81
c0 -29 -2 -53 -4 -53 -3 0 -64 99 -74 122 -2 4 9 8 25 10 39 5 53 -16 53 -79z
m10490 66 c0 -6 -4 -7 -10 -4 -5 3 -10 11 -10 16 0 6 5 7 10 4 6 -3 10 -11 10
-16z m186 -70 c5 -9 -74 18 -88 30 -4 3 -10 19 -14 36 l-7 30 51 -44 c29 -23
55 -47 58 -52z m110 69 c-3 -13 -6 -26 -6 -30 0 -5 -4 -8 -10 -8 -5 0 -10 14
-10 30 0 21 5 30 16 30 12 0 15 -6 10 -22z m352 10 c-6 -18 -28 -21 -28 -4 0
9 7 16 16 16 9 0 14 -5 12 -12z m302 -8 c0 -19 -11 -26 -23 -14 -8 8 3 34 14
34 5 0 9 -9 9 -20z m-11990 -38 c-14 -5 -30 16 -30 38 1 10 7 7 21 -10 14 -17
17 -26 9 -28z m450 28 c0 -16 -57 -137 -79 -169 -26 -36 -51 -37 -47 -2 6 41
18 64 66 124 44 55 60 67 60 47z m10850 -73 c0 -30 0 -30 -21 -11 -22 20 -49
66 -49 84 0 6 16 -1 35 -16 26 -20 35 -34 35 -57z m-11217 22 c-16 -19 -53
-14 -53 7 0 7 12 20 28 28 24 13 28 13 33 -2 4 -10 0 -24 -8 -33z m307 30 c-7
-11 -14 -18 -17 -15 -8 8 5 36 17 36 7 0 7 -6 0 -21z m-428 -4 c4 -5 4 -13 2
-17 -9 -14 -22 -9 -27 12 -5 20 12 24 25 5z m388 -14 c-6 -12 -15 -21 -21 -21
-5 0 -2 11 7 25 20 30 31 26 14 -4z m130 8 c0 -5 -4 -9 -10 -9 -5 0 -10 7 -10
16 0 8 5 12 10 9 6 -3 10 -10 10 -16z m10611 -18 c42 -42 48 -61 23 -85 -18
-18 -34 -21 -34 -5 0 5 5 7 10 4 6 -3 10 -2 10 4 0 5 -7 14 -16 19 -20 11 -57
102 -42 102 6 0 28 -17 49 -39z m286 2 c-3 -10 -5 -4 -5 12 0 17 2 24 5 18 2
-7 2 -21 0 -30z m388 7 c10 -11 15 -20 11 -20 -14 0 -46 21 -46 30 0 16 16 11
35 -10z m-11468 -17 c-15 -16 -17 -16 -17 -1 0 9 6 18 13 21 20 7 22 -2 4 -20z
m11683 17 c0 -5 -7 -10 -15 -10 -8 0 -15 5 -15 10 0 6 7 10 15 10 8 0 15 -4
15 -10z m-11716 -49 c-9 -10 -26 18 -18 30 5 9 9 8 14 -7 4 -10 6 -21 4 -23z
m245 -16 c-1 -29 -1 -29 -9 -5 l-8 25 -1 -25 c-1 -17 -11 -32 -32 -44 l-31
-18 7 33 c4 19 14 45 22 58 12 19 17 21 24 10 7 -11 9 -9 9 6 0 17 2 17 10 5
5 -8 9 -28 9 -45z m11621 45 c0 -5 -2 -10 -4 -10 -3 0 -8 5 -11 10 -3 6 -1 10
4 10 6 0 11 -4 11 -10z m-930 -20 c22 -11 47 -34 56 -51 18 -35 16 -35 -58 19
-27 19 -48 38 -48 43 0 13 6 12 50 -11z m265 -19 c-10 -16 -25 -3 -25 22 0 20
1 20 16 5 9 -9 13 -21 9 -27z m520 29 c13 -6 15 -9 5 -9 -8 0 -22 4 -30 9 -18
12 -2 12 25 0z m-12015 -10 c0 -5 -7 -10 -16 -10 -8 0 -12 5 -9 10 3 6 10 10
16 10 5 0 9 -4 9 -10z m11805 -10 c3 -5 1 -10 -4 -10 -6 0 -11 5 -11 10 0 6 2
10 4 10 3 0 8 -4 11 -10z m-11599 -26 c-30 -21 -44 -16 -17 7 13 11 27 17 30
13 3 -3 -3 -12 -13 -20z m430 -40 c-3 -8 -10 -14 -16 -14 -14 0 -13 43 3 59
10 10 13 8 15 -9 2 -12 1 -28 -2 -36z m-666 36 c0 -5 -2 -10 -4 -10 -3 0 -8 5
-11 10 -3 6 -1 10 4 10 6 0 11 -4 11 -10z m360 0 c0 -5 -5 -10 -11 -10 -5 0
-7 5 -4 10 3 6 8 10 11 10 2 0 4 -4 4 -10z m10319 -45 c36 -59 36 -71 -2 -61
-19 4 -25 15 -34 61 -5 30 -7 55 -3 55 3 0 21 -25 39 -55z m583 15 c-1 -6 2
-9 7 -6 5 4 11 3 13 -2 1 -4 19 -18 39 -30 40 -24 59 -62 30 -62 -22 0 -121
67 -121 83 0 6 -3 23 -7 37 -6 24 -6 25 18 8 13 -9 23 -22 21 -28z m-10968 15
c-4 -8 -8 -15 -10 -15 -2 0 -4 7 -4 15 0 8 4 15 10 15 5 0 7 -7 4 -15z m10646
-1 c0 -8 -4 -12 -10 -9 -5 3 -10 10 -10 16 0 5 5 9 10 9 6 0 10 -7 10 -16z
m54 -15 c3 -17 16 -45 28 -62 15 -21 18 -32 10 -35 -7 -2 -9 -9 -5 -15 3 -7 2
-8 -3 -4 -5 5 -9 12 -9 16 0 4 -8 16 -18 26 -13 12 -16 26 -12 43 5 19 3 23
-9 19 -14 -6 -30 26 -18 37 14 15 30 3 36 -25z m580 10 c-3 -5 -10 -7 -15 -3
-5 3 -7 10 -3 15 3 5 10 7 15 3 5 -3 7 -10 3 -15z m-10724 -21 c-15 -25 -31
-36 -65 -44 -25 -7 -45 -9 -45 -5 0 5 118 80 127 81 2 0 -6 -15 -17 -32z
m10197 10 c20 -19 31 -48 19 -48 -18 0 -39 17 -52 41 -18 36 -1 39 33 7z
m-10446 -19 c-9 -22 -10 -22 -10 -3 -1 11 2 24 6 27 12 12 14 0 4 -24z m133
-3 c-22 -34 -74 -72 -73 -54 1 30 17 51 50 68 41 22 46 19 23 -14z m9851 -34
c33 -41 42 -61 38 -81 -6 -36 -19 -47 -38 -31 -22 18 -64 91 -75 131 -20 68
14 59 75 -19z m1240 29 c-10 -16 -25 -3 -25 22 0 20 1 20 16 5 9 -9 13 -21 9
-27z m-10865 25 c0 -2 -8 -10 -17 -17 -16 -13 -17 -12 -4 4 13 16 21 21 21 13z
m460 -10 c0 -8 -7 -17 -16 -20 -28 -11 -34 -6 -22 14 15 23 38 27 38 6z m9515
-36 c-7 -12 -35 -13 -35 -2 0 4 6 14 13 21 10 11 10 13 0 7 -13 -7 -18 6 -6
17 9 10 35 -31 28 -43z m955 46 c0 -3 -4 -8 -10 -11 -5 -3 -10 -1 -10 4 0 6 5
11 10 11 6 0 10 -2 10 -4z m-10670 -35 c0 -9 13 -30 30 -46 26 -25 33 -54 9
-40 -5 4 -9 1 -9 -5 0 -6 -4 -8 -10 -5 -5 3 -10 15 -10 26 0 11 -7 27 -15 35
-17 17 -21 69 -5 59 6 -3 10 -14 10 -24z m10700 -10 c0 -11 -3 -11 -14 -1 -8
6 -12 18 -9 27 5 12 7 12 14 1 5 -7 9 -19 9 -27z m-11400 -10 c-13 -25 -30
-27 -30 -5 0 19 33 48 38 34 2 -5 -2 -18 -8 -29z m770 29 c0 -5 -4 -10 -10
-10 -5 0 -10 5 -10 10 0 6 5 10 10 10 6 0 10 -4 10 -10z m60 -35 c0 -2 -7 -5
-15 -9 -8 -3 -14 -2 -14 2 4 21 -3 22 -21 1 -21 -26 -27 -11 -8 20 11 17 14
18 35 4 13 -8 23 -17 23 -18z m-420 20 c0 -13 -40 -67 -64 -86 -22 -17 -30
-19 -36 -9 -13 20 2 48 40 74 32 23 60 33 60 21z m915 -5 c3 -5 1 -10 -4 -10
-6 0 -11 5 -11 10 0 6 2 10 4 10 3 0 8 -4 11 -10z m9335 -10 c0 -11 -2 -20 -4
-20 -2 0 -6 9 -9 20 -3 11 -1 20 4 20 5 0 9 -9 9 -20z m-11080 -46 c-18 -21
-24 -10 -9 18 8 14 14 18 17 10 2 -7 -2 -19 -8 -28z m110 17 c-15 -29 -30 -35
-30 -13 0 22 8 32 27 32 10 0 11 -5 3 -19z m250 4 c0 -8 -7 -15 -15 -15 -26 0
-18 20 13 29 1 1 2 -6 2 -14z m360 10 c0 -3 -31 -21 -70 -40 -71 -36 -88 -35
-47 2 30 28 117 56 117 38z m1012 -25 c-21 -25 -27 -25 -29 -1 -1 11 6 21 15
24 27 6 32 -2 14 -23z m9078 23 c0 -5 -5 -15 -10 -23 -7 -12 -9 -10 -7 8 1 19
17 33 17 15z m-9134 -29 c-3 -8 -1 -25 5 -36 10 -18 9 -19 -19 -13 -23 5 -33
2 -41 -12 -6 -10 -11 -14 -11 -10 0 18 53 85 69 87 2 0 0 -7 -3 -16z m8950
-12 c1 -12 -2 -22 -6 -22 -13 0 -40 36 -33 44 14 13 38 0 39 -22z m-9578 -8
c0 -17 -4 -22 -11 -15 -5 5 -7 17 -4 25 9 23 15 19 15 -10z m9802 1 c0 -8 -4
-15 -10 -15 -5 0 -10 7 -10 15 0 8 5 15 10 15 6 0 10 -7 10 -15z m-10160 -2
c0 -11 -12 -26 -33 -42 -16 -12 -18 -12 -15 0 2 8 -3 13 -9 12 -22 -5 -14 6
15 21 31 17 42 19 42 9z m9910 -32 c-1 -13 -3 -13 -15 3 -19 26 -19 42 0 26 8
-7 15 -20 15 -29z m274 23 c3 -8 2 -12 -4 -9 -6 3 -10 10 -10 16 0 14 7 11 14
-7z m381 -63 c-7 -6 -75 60 -75 73 0 6 18 -7 40 -29 22 -21 37 -41 35 -44z
m-1007 43 c14 -9 22 -24 22 -42 0 -19 -3 -23 -9 -13 -6 9 -11 10 -15 2 -11
-17 -21 -13 -36 14 -7 14 -27 35 -44 46 l-31 21 45 -7 c25 -3 55 -13 68 -21z
m882 10 c0 -8 -4 -12 -10 -9 -5 3 -10 10 -10 16 0 5 5 9 10 9 6 0 10 -7 10
-16z m-6803 -16 c-3 -8 -6 -5 -6 6 -1 11 2 17 5 13 3 -3 4 -12 1 -19z m-3562
2 c-3 -5 -11 -10 -16 -10 -6 0 -7 5 -4 10 3 6 11 10 16 10 6 0 7 -4 4 -10z
m8949 -6 c3 -8 2 -12 -4 -9 -6 3 -10 10 -10 16 0 14 7 11 14 -7z m-8774 -15
c0 -5 -4 -9 -10 -9 -5 0 -10 7 -10 16 0 8 5 12 10 9 6 -3 10 -10 10 -16z
m9363 -14 c-7 -21 -12 -19 -10 4 0 11 5 18 9 15 4 -3 5 -11 1 -19z m-8633 -9
c0 -2 -8 -10 -17 -17 -16 -13 -17 -12 -4 4 13 16 21 21 21 13z m2170 -21 c0
-8 -4 -15 -9 -15 -13 0 -22 16 -14 24 11 11 23 6 23 -9z m144 -11 c3 -8 2 -12
-4 -9 -6 3 -10 10 -10 16 0 14 7 11 14 -7z m-1734 -4 c0 -5 -4 -10 -9 -10 -5
0 -18 -3 -28 -6 -16 -6 -16 -5 2 9 23 19 35 21 35 7z m1544 4 c23 -9 20 -24
-4 -24 -11 0 -20 7 -20 15 0 17 2 18 24 9z m1083 -10 c-3 -3 -12 -4 -19 -1 -8
3 -5 6 6 6 11 1 17 -2 13 -5z m3683 -85 c0 -5 -4 -9 -10 -9 -5 0 -10 7 -10 16
0 8 5 12 10 9 6 -3 10 -10 10 -16z"/>
<path d="M494 1875 c-10 -8 -14 -15 -8 -15 6 0 17 7 24 15 16 19 9 19 -16 0z"/>
<path d="M945 1830 c-10 -11 -16 -22 -14 -24 2 -2 12 7 22 20 22 29 17 32 -8
4z"/>
<path d="M950 1798 c-15 -21 -17 -28 -6 -19 16 13 41 51 33 51 -2 0 -14 -15
-27 -32z"/>
<path d="M14640 1720 c0 -5 5 -10 11 -10 5 0 7 5 4 10 -3 6 -8 10 -11 10 -2 0
-4 -4 -4 -10z"/>
<path d="M1989 1291 c8 -5 10 -14 6 -22 -6 -11 -5 -11 5 -2 14 12 6 33 -13 33
-8 0 -7 -3 2 -9z"/>
<path d="M17293 2115 c0 -8 4 -12 9 -9 5 3 6 10 3 15 -9 13 -12 11 -12 -6z"/>
<path d="M16801 2104 c0 -11 3 -14 6 -6 3 7 2 16 -1 19 -3 4 -6 -2 -5 -13z"/>
<path d="M17321 2080 c14 -31 19 -36 19 -24 0 6 -7 19 -16 30 -14 18 -14 18
-3 -6z"/>
<path d="M18605 2064 c-31 -27 -33 -31 -9 -15 28 18 62 51 53 51 -2 0 -22 -16
-44 -36z"/>
<path d="M15355 2031 c19 -23 75 -66 75 -59 0 2 -21 21 -47 43 -27 21 -39 28
-28 16z"/>
<path d="M15800 2036 c0 -2 8 -10 18 -17 15 -13 16 -12 3 4 -13 16 -21 21 -21
13z"/>
<path d="M15870 1973 c18 -24 36 -41 39 -38 3 3 -12 22 -33 43 l-39 37 33 -42z"/>
<path d="M15021 1984 c0 -11 3 -14 6 -6 3 7 2 16 -1 19 -3 4 -6 -2 -5 -13z"/>
<path d="M91 1964 c0 -11 3 -14 6 -6 3 7 2 16 -1 19 -3 4 -6 -2 -5 -13z"/>
<path d="M19111 1944 c0 -11 3 -14 6 -6 3 7 2 16 -1 19 -3 4 -6 -2 -5 -13z"/>
<path d="M14531 1914 c0 -11 3 -14 6 -6 3 7 2 16 -1 19 -3 4 -6 -2 -5 -13z"/>
<path d="M1298 1913 c6 -2 18 -2 25 0 6 3 1 5 -13 5 -14 0 -19 -2 -12 -5z"/>
<path d="M14989 1833 c-13 -16 -12 -17 4 -4 9 7 17 15 17 17 0 8 -8 3 -21 -13z"/>
<path d="M14615 1810 c3 -5 8 -10 11 -10 2 0 4 5 4 10 0 6 -5 10 -11 10 -5 0
-7 -4 -4 -10z"/>
<path d="M14583 1755 c0 -7 6 -11 14 -8 7 3 13 6 13 8 0 2 -6 5 -13 8 -8 3
-14 -1 -14 -8z"/>
<path d="M1535 1720 c-16 -7 -17 -9 -3 -9 9 -1 20 4 23 9 7 11 7 11 -20 0z"/>
<path d="M13340 1716 c0 -2 8 -10 18 -17 15 -13 16 -12 3 4 -13 16 -21 21 -21
13z"/>
<path d="M13240 1686 c0 -2 7 -7 16 -10 8 -3 12 -2 9 4 -6 10 -25 14 -25 6z"/>
<path d="M13280 1665 c0 -7 81 -47 86 -43 2 3 -17 14 -41 26 -25 12 -45 20
-45 17z"/>
<path d="M1590 1650 c-8 -5 -10 -10 -5 -10 6 0 17 5 25 10 8 5 11 10 5 10 -5
0 -17 -5 -25 -10z"/>
<path d="M2069 1583 c-13 -16 -12 -17 4 -4 9 7 17 15 17 17 0 8 -8 3 -21 -13z"/>
<path d="M1967 1583 c-3 -5 8 -8 25 -9 20 -1 25 2 16 7 -16 11 -35 11 -41 2z"/>
<path d="M1858 1543 c7 -3 16 -2 19 1 4 3 -2 6 -13 5 -11 0 -14 -3 -6 -6z"/>
<path d="M12969 1523 c-13 -16 -12 -17 4 -4 16 13 21 21 13 21 -2 0 -10 -8
-17 -17z"/>
<path d="M2620 1270 c-20 -6 -21 -8 -5 -8 11 0 29 3 40 8 25 11 -1 11 -35 0z"/>
<path d="M2568 1253 c7 -3 16 -2 19 1 4 3 -2 6 -13 5 -11 0 -14 -3 -6 -6z"/>
<path d="M5524 1146 c-5 -14 -9 -15 -15 -4 -6 9 -9 7 -9 -9 0 -15 -5 -21 -14
-17 -7 3 -16 -2 -19 -10 -8 -21 12 -20 35 1 14 13 18 13 19 2 0 -8 5 -1 10 15
9 33 4 50 -7 22z"/>
</g>
</svg>
